<?xml version="1.0" encoding="UTF-8"?>
<svg xmlns="http://www.w3.org/2000/svg" xmlns:xlink="http://www.w3.org/1999/xlink" width="4000" height="2500" viewBox="0 0 4000 2500">
<defs>
<linearGradient id="linear-pattern-0" gradientUnits="userSpaceOnUse" x1="0.000000000000000111" y1="0" x2="1" y2="0" gradientTransform="matrix(3250, -3250, 3250, 3250, 375, 2875)">
<stop offset="0" stop-color="rgb(85.496521%, 85.667419%, 85.554504%)" stop-opacity="1"/>
<stop offset="0.015625" stop-color="rgb(85.68573%, 85.719299%, 85.559082%)" stop-opacity="1"/>
<stop offset="0.03125" stop-color="rgb(86.068726%, 86.003113%, 85.809326%)" stop-opacity="1"/>
<stop offset="0.0625" stop-color="rgb(86.457825%, 86.468506%, 86.303711%)" stop-opacity="1"/>
<stop offset="0.078125" stop-color="rgb(86.839294%, 86.764526%, 86.57074%)" stop-opacity="1"/>
<stop offset="0.09375" stop-color="rgb(87.049866%, 87.002563%, 86.820984%)" stop-opacity="1"/>
<stop offset="0.109375" stop-color="rgb(87.243652%, 87.242126%, 87.078857%)" stop-opacity="1"/>
<stop offset="0.125" stop-color="rgb(87.442017%, 87.478638%, 87.330627%)" stop-opacity="1"/>
<stop offset="0.140625" stop-color="rgb(87.637329%, 87.718201%, 87.588501%)" stop-opacity="1"/>
<stop offset="0.15625" stop-color="rgb(87.998962%, 88.002014%, 87.846375%)" stop-opacity="1"/>
<stop offset="0.171875" stop-color="rgb(88.232422%, 88.40332%, 88.171387%)" stop-opacity="1"/>
<stop offset="0.1875" stop-color="rgb(88.42926%, 88.674927%, 88.439941%)" stop-opacity="1"/>
<stop offset="0.203125" stop-color="rgb(88.62915%, 88.91449%, 88.699341%)" stop-opacity="1"/>
<stop offset="0.21875" stop-color="rgb(88.825989%, 89.157104%, 88.957214%)" stop-opacity="1"/>
<stop offset="0.234375" stop-color="rgb(89.167786%, 89.299011%, 89.163208%)" stop-opacity="1"/>
<stop offset="0.25" stop-color="rgb(89.407349%, 89.506531%, 89.268494%)" stop-opacity="1"/>
<stop offset="0.265625" stop-color="rgb(89.604187%, 89.749146%, 89.486694%)" stop-opacity="1"/>
<stop offset="0.28125" stop-color="rgb(89.944458%, 90.031433%, 89.753723%)" stop-opacity="1"/>
<stop offset="0.296875" stop-color="rgb(90.197754%, 90.292358%, 90.0177%)" stop-opacity="1"/>
<stop offset="0.3125" stop-color="rgb(90.394592%, 90.534973%, 90.281677%)" stop-opacity="1"/>
<stop offset="0.328125" stop-color="rgb(90.596008%, 90.782166%, 90.545654%)" stop-opacity="1"/>
<stop offset="0.34375" stop-color="rgb(90.792847%, 91.02478%, 90.811157%)" stop-opacity="1"/>
<stop offset="0.359375" stop-color="rgb(91.120911%, 91.31012%, 91.079712%)" stop-opacity="1"/>
<stop offset="0.375" stop-color="rgb(91.389465%, 91.575623%, 91.349792%)" stop-opacity="1"/>
<stop offset="0.390625" stop-color="rgb(91.58783%, 91.824341%, 91.616821%)" stop-opacity="1"/>
<stop offset="0.40625" stop-color="rgb(91.899109%, 91.992188%, 91.841125%)" stop-opacity="1"/>
<stop offset="0.421875" stop-color="rgb(92.173767%, 92.189026%, 92.079163%)" stop-opacity="1"/>
<stop offset="0.4375" stop-color="rgb(92.372131%, 92.43927%, 92.350769%)" stop-opacity="1"/>
<stop offset="0.453125" stop-color="rgb(92.575073%, 92.686462%, 92.617798%)" stop-opacity="1"/>
<stop offset="0.46875" stop-color="rgb(92.774963%, 92.938232%, 92.892456%)" stop-opacity="1"/>
<stop offset="0.484375" stop-color="rgb(92.979431%, 93.186951%, 93.161011%)" stop-opacity="1"/>
<stop offset="0.5" stop-color="rgb(93.177795%, 93.438721%, 93.435669%)" stop-opacity="1"/>
<stop offset="0.515625" stop-color="rgb(93.476868%, 93.717957%, 93.710327%)" stop-opacity="1"/>
<stop offset="0.53125" stop-color="rgb(93.870544%, 94.029236%, 93.995667%)" stop-opacity="1"/>
<stop offset="0.546875" stop-color="rgb(94.17572%, 94.311523%, 94.271851%)" stop-opacity="1"/>
<stop offset="0.5625" stop-color="rgb(94.37561%, 94.566345%, 94.551086%)" stop-opacity="1"/>
<stop offset="0.578125" stop-color="rgb(94.664001%, 94.844055%, 94.828796%)" stop-opacity="1"/>
<stop offset="0.59375" stop-color="rgb(94.978333%, 95.133972%, 95.114136%)" stop-opacity="1"/>
<stop offset="0.609375" stop-color="rgb(95.179749%, 95.385742%, 95.388794%)" stop-opacity="1"/>
<stop offset="0.625" stop-color="rgb(95.46051%, 95.66803%, 95.675659%)" stop-opacity="1"/>
<stop offset="0.640625" stop-color="rgb(95.779419%, 95.887756%, 95.927429%)" stop-opacity="1"/>
<stop offset="0.65625" stop-color="rgb(95.973206%, 96.02356%, 96.156311%)" stop-opacity="1"/>
<stop offset="0.6875" stop-color="rgb(96.246338%, 96.362305%, 96.463013%)" stop-opacity="1"/>
<stop offset="0.71875" stop-color="rgb(96.646118%, 96.809387%, 96.868896%)" stop-opacity="1"/>
<stop offset="0.734375" stop-color="rgb(96.986389%, 97.111511%, 97.291565%)" stop-opacity="1"/>
<stop offset="0.75" stop-color="rgb(97.189331%, 97.369385%, 97.525024%)" stop-opacity="1"/>
<stop offset="0.765625" stop-color="rgb(97.396851%, 97.621155%, 97.666931%)" stop-opacity="1"/>
<stop offset="0.78125" stop-color="rgb(97.599792%, 97.88208%, 97.955322%)" stop-opacity="1"/>
<stop offset="0.8125" stop-color="rgb(97.845459%, 98.150635%, 98.236084%)" stop-opacity="1"/>
<stop offset="0.84375" stop-color="rgb(98.23761%, 98.472595%, 98.536682%)" stop-opacity="1"/>
<stop offset="0.859375" stop-color="rgb(98.603821%, 98.780823%, 98.826599%)" stop-opacity="1"/>
<stop offset="0.875" stop-color="rgb(98.808289%, 99.0448%, 99.119568%)" stop-opacity="1"/>
<stop offset="0.90625" stop-color="rgb(99.03717%, 99.308777%, 99.403381%)" stop-opacity="1"/>
<stop offset="0.9375" stop-color="rgb(99.430847%, 99.635315%, 99.708557%)" stop-opacity="1"/>
<stop offset="1" stop-color="rgb(99.816895%, 99.940491%, 99.987793%)" stop-opacity="1"/>
</linearGradient>
</defs>
<path fill-rule="nonzero" fill="rgb(68.09845%, 69.049072%, 87.528992%)" fill-opacity="1" d="M 889.234375 1576.921875 C 837.445312 1576.921875 762.066406 1531.839844 656.59375 1438.488281 C 540.464844 1335.71875 402.796875 1187.898438 257.042969 1031.398438 C -84.355469 664.828125 -471.320312 249.320312 -661.71875 344.640625 C -814.5 421.101562 -825.347656 810.550781 -694.875 1535.261719 L -698.566406 1535.921875 C -829.371094 809.359375 -817.867188 418.589844 -663.394531 341.28125 C -577.011719 298.058594 -444.765625 353.050781 -259.105469 509.421875 C -96.109375 646.699219 84.816406 840.96875 259.789062 1028.839844 C 544.40625 1334.449219 813.242188 1623.109375 921.078125 1565.691406 C 996.121094 1525.75 989.492188 1320.980469 900.808594 939.699219 C 791.015625 467.660156 789.964844 206.820312 897.597656 142.261719 C 1038.691406 57.660156 1340.480469 321.738281 1632.359375 577.121094 C 1894.941406 806.871094 2142.929688 1023.878906 2245.320312 961.128906 C 2314.871094 918.5 2311.019531 748.949219 2233.558594 442.789062 C 2159.011719 148.109375 2167.519531 -30.441406 2259.601562 -103.089844 C 2411.601562 -223.011719 2766.109375 -37.238281 3141.441406 159.449219 C 3543.410156 370.101562 3959.070312 587.921875 4151.429688 440.640625 C 4276.691406 344.738281 4294.601562 104.839844 4206.199219 -292.761719 L 4209.859375 -293.570312 C 4298.609375 105.601562 4280.238281 346.738281 4153.710938 443.621094 C 4109.148438 477.730469 4052.871094 492.539062 3987.75 492.539062 C 3768.96875 492.550781 3450.269531 325.519531 3139.691406 162.769531 C 2765.480469 -33.328125 2412.03125 -218.570312 2261.929688 -100.140625 C 2171.128906 -28.511719 2163.050781 148.78125 2237.199219 441.871094 C 2315.121094 749.828125 2318.410156 920.730469 2247.269531 964.328125 C 2142.570312 1028.519531 1893.53125 810.628906 1629.890625 579.941406 C 1339.019531 325.441406 1038.25 62.261719 899.527344 145.480469 C 793.472656 209.089844 795.085938 468.601562 904.460938 938.851562 C 993.585938 1322.019531 999.59375 1528.148438 922.839844 1569 C 912.96875 1574.261719 901.789062 1576.921875 889.234375 1576.921875 "/>
<path fill-rule="nonzero" fill="rgb(47.460938%, 82.862854%, 91.731262%)" fill-opacity="1" d="M 872.320312 1601.671875 C 819.894531 1601.671875 744.464844 1558.359375 639.695312 1468.808594 C 522.988281 1369.050781 384.890625 1224.96875 238.683594 1072.441406 C -103.777344 715.128906 -491.917969 310.160156 -686.3125 408.320312 C -841.617188 486.738281 -857.441406 870.449219 -734.679688 1581.378906 L -738.375 1582.011719 C -861.453125 869.25 -844.980469 484.230469 -688.003906 404.96875 C -599.867188 360.46875 -466.261719 412.558594 -279.542969 564.21875 C -115.609375 697.371094 65.878906 886.71875 241.390625 1069.839844 C 526.882812 1367.691406 796.550781 1649 906.519531 1589.828125 C 982.71875 1548.808594 978.503906 1347.25 893.636719 973.601562 C 788.703125 511.628906 790.636719 254.871094 899.554688 188.679688 C 1043.359375 101.28125 1347.289062 358.269531 1641.199219 606.800781 C 1905.550781 830.320312 2155.199219 1041.429688 2259.539062 976.601562 C 2329.890625 932.871094 2327.941406 766.050781 2253.578125 466.589844 C 2182.320312 179.628906 2192.511719 4.199219 2284.738281 -69.71875 C 2439.269531 -193.609375 2798.679688 -14.320312 3179.160156 175.511719 C 3489.328125 330.25 3807.570312 489 4028.351562 489.019531 C 4097.761719 489.03125 4157.488281 473.351562 4204.371094 436.921875 C 4330.050781 339.261719 4350.371094 103.449219 4266.488281 -283.96875 L 4270.148438 -284.761719 C 4354.371094 104.210938 4333.609375 341.238281 4206.671875 439.878906 C 4159.148438 476.820312 4098.628906 492.710938 4028.46875 492.710938 C 3806.558594 492.71875 3488.019531 333.789062 3177.488281 178.859375 C 2798.109375 -10.410156 2439.769531 -189.179688 2287.078125 -66.800781 C 2196.121094 6.121094 2186.351562 180.300781 2257.21875 465.691406 C 2332.019531 766.929688 2333.429688 935.089844 2261.519531 979.789062 C 2154.878906 1046.078125 1904.191406 834.089844 1638.78125 609.660156 C 1345.878906 361.988281 1043 105.878906 901.503906 191.878906 C 794.136719 257.140625 792.761719 512.570312 897.296875 972.769531 C 982.585938 1348.289062 986.183594 1551.210938 908.300781 1593.128906 C 897.757812 1598.800781 885.792969 1601.671875 872.320312 1601.671875 "/>
<path fill-rule="nonzero" fill="rgb(75.059509%, 81.564331%, 93.295288%)" fill-opacity="1" d="M -779.410156 1627.941406 C -894.816406 928.738281 -873.390625 549.339844 -713.902344 468.078125 C -623.972656 422.261719 -488.929688 471.449219 -301.050781 618.460938 C -136.097656 747.539062 46.050781 932.050781 222.199219 1110.488281 C 508.695312 1400.710938 779.308594 1674.808594 891.46875 1613.78125 C 968.808594 1571.679688 966.988281 1373.25 885.902344 1007.128906 C 785.777344 555.078125 790.660156 302.351562 900.839844 234.480469 C 1047.441406 144.191406 1353.660156 394.171875 1649.789062 635.941406 C 1916.058594 853.308594 2167.519531 1058.601562 2273.851562 991.609375 C 2344.96875 946.769531 2344.890625 782.609375 2273.589844 489.761719 C 2205.589844 210.429688 2217.398438 38.109375 2309.699219 -37.050781 C 2466.871094 -165.019531 2831.359375 7.851562 3217.269531 190.839844 C 3527.320312 337.859375 3845.320312 488.640625 4069.230469 488.660156 C 4144.058594 488.660156 4208.339844 471.828125 4258.351562 432.390625 C 4384.378906 333.019531 4407.03125 101.261719 4327.601562 -276.140625 L 4331.269531 -276.910156 C 4411.019531 102.019531 4387.929688 335 4260.679688 435.339844 C 4059.199219 594.210938 3630.371094 390.878906 3215.660156 194.230469 C 2830.859375 11.75 2467.390625 -160.621094 2312.070312 -34.148438 C 2221 40.011719 2209.609375 211.089844 2277.230469 488.871094 C 2348.960938 783.488281 2348.511719 948.980469 2275.851562 994.78125 C 2261.398438 1003.890625 2244.378906 1008.140625 2225.140625 1008.140625 C 2099.78125 1008.171875 1879.191406 828.050781 1647.421875 638.839844 C 1352.308594 397.910156 1047.148438 148.789062 902.804688 237.679688 C 794.15625 304.601562 789.828125 556.019531 889.5625 1006.320312 C 971.058594 1374.289062 972.269531 1574.058594 893.261719 1617.070312 C 882.160156 1623.109375 869.554688 1625.988281 855.632812 1625.988281 C 725.828125 1626.03125 479.195312 1376.160156 219.53125 1113.128906 C -124.191406 764.941406 -513.773438 370.308594 -712.199219 471.421875 C -870.042969 551.851562 -890.816406 929.949219 -775.707031 1627.328125 L -779.410156 1627.941406 "/>
<path fill-rule="nonzero" fill="rgb(74.902344%, 91.342163%, 86.663818%)" fill-opacity="1" d="M -821.6875 1673.71875 C -929.488281 987.871094 -903.144531 613.96875 -741.136719 530.660156 C -649.382812 483.460938 -512.835938 529.761719 -323.695312 672.179688 C -157.628906 797.21875 25.269531 976.96875 202.152344 1150.800781 C 489.8125 1433.5 761.503906 1700.511719 875.929688 1637.539062 C 954.402344 1594.339844 954.953125 1398.96875 877.609375 1040.261719 C 782.242188 597.988281 790.035156 349.191406 901.433594 279.660156 C 1050.871094 186.371094 1359.578125 429.429688 1658.101562 664.511719 C 1926.449219 875.828125 2179.910156 1075.421875 2288.261719 1006.148438 C 2360.140625 960.191406 2361.898438 798.660156 2293.648438 512.320312 C 2228.839844 240.511719 2242.210938 71.269531 2334.511719 -5.070312 C 2494.269531 -137.191406 2864.140625 29.25 3255.75 205.441406 C 3565.601562 344.859375 3883.261719 487.78125 4110.21875 487.789062 C 4190.878906 487.789062 4260.058594 469.75 4313.398438 427.078125 C 4439.679688 326.058594 4464.589844 98.308594 4389.539062 -269.179688 L 4393.210938 -269.929688 C 4468.558594 99.070312 4443.230469 328.03125 4315.738281 430.011719 C 4261.738281 473.210938 4191.730469 491.46875 4110.300781 491.480469 C 3882.328125 491.511719 3564.410156 348.441406 3254.210938 208.859375 C 2863.691406 33.148438 2494.828125 -132.789062 2336.898438 -2.179688 C 2245.808594 73.160156 2232.851562 241.171875 2297.289062 511.449219 C 2365.96875 799.53125 2363.671875 962.378906 2290.28125 1009.308594 C 2274.828125 1019.191406 2256.550781 1023.78125 2235.828125 1023.78125 C 2108.269531 1023.800781 1887.558594 849.980469 1655.78125 667.460938 C 1358.28125 433.191406 1050.648438 190.929688 903.417969 282.839844 C 793.527344 351.441406 786.28125 598.941406 881.273438 1039.46875 C 959.015625 1400.019531 957.855469 1596.71875 877.734375 1640.828125 C 865.851562 1647.371094 852.347656 1650.46875 837.386719 1650.46875 C 705.253906 1650.488281 458.855469 1408.328125 199.523438 1153.46875 C -145.632812 814.269531 -536.851562 429.808594 -739.425781 533.988281 C -899.804688 616.46875 -925.5 989.089844 -817.980469 1673.140625 L -821.6875 1673.71875 "/>
<path fill-rule="nonzero" fill="rgb(54.325867%, 82.029724%, 93.092346%)" fill-opacity="1" d="M -865.226562 1719.398438 C -965.476562 1046.671875 -934.234375 678.140625 -769.710938 592.738281 C -676.066406 544.128906 -537.949219 587.519531 -347.457031 725.378906 C -180.195312 846.421875 3.554688 1021.46875 181.257812 1190.761719 C 470.238281 1466.058594 743.199219 1726.078125 859.882812 1661.101562 C 939.488281 1616.769531 942.394531 1424.398438 868.757812 1072.96875 C 778.097656 640.371094 788.753906 395.449219 901.339844 324.21875 C 1053.75 227.820312 1365.078125 464.078125 1666.191406 692.570312 C 1936.78125 897.910156 2192.351562 1091.851562 2302.769531 1020.25 C 2375.371094 973.160156 2378.929688 814.210938 2313.671875 534.308594 C 2252.019531 269.921875 2266.898438 103.75 2359.140625 26.28125 C 2521.519531 -110.089844 2897.058594 49.921875 3294.640625 219.328125 C 3604.148438 351.210938 3921.339844 486.351562 4151.261719 486.359375 C 4238.21875 486.359375 4312.671875 467.039062 4369.539062 420.898438 C 4495.988281 318.308594 4523.070312 94.550781 4452.339844 -263.179688 L 4456.019531 -263.910156 C 4527.050781 95.308594 4499.53125 320.269531 4371.890625 423.820312 C 4314.339844 470.511719 4239.070312 490.058594 4151.328125 490.058594 C 3920.449219 490.078125 3603.011719 354.800781 3293.171875 222.78125 C 2896.679688 53.828125 2522.179688 -105.738281 2361.550781 29.148438 C 2270.5 105.621094 2256.03125 270.578125 2317.320312 533.460938 C 2382.988281 815.089844 2378.898438 975.339844 2304.808594 1023.390625 C 2288.289062 1034.101562 2268.671875 1039.058594 2246.371094 1039.058594 C 2116.589844 1039.070312 1895.75 871.480469 1663.921875 695.558594 C 1363.828125 467.839844 1053.511719 232.351562 903.34375 327.390625 C 792.242188 397.679688 782.128906 641.308594 872.429688 1072.210938 C 946.445312 1425.449219 942.9375 1619.148438 861.707031 1664.378906 C 742.605469 1730.699219 468.683594 1469.75 178.667969 1193.46875 C -168.101562 863.128906 -561.125 488.679688 -767.984375 596.070312 C -930.910156 680.628906 -961.503906 1047.898438 -861.515625 1718.839844 L -865.226562 1719.398438 "/>
<path fill-rule="nonzero" fill="rgb(34.741211%, 61.528015%, 85.705566%)" fill-opacity="1" d="M -910.015625 1764.96875 C -1002.78125 1105.148438 -966.671875 741.851562 -799.625 654.320312 C -704.054688 604.25 -564.289062 644.730469 -372.328125 778.078125 C -203.78125 895.171875 -19.078125 1065.601562 159.542969 1230.421875 C 449.992188 1498.421875 724.332031 1751.570312 843.34375 1684.511719 C 924.066406 1639.039062 929.296875 1449.601562 859.332031 1105.378906 C 773.332031 682.289062 786.8125 441.171875 900.546875 368.230469 C 1055.910156 268.601562 1370.140625 498.128906 1674.011719 720.101562 C 1947.019531 919.53125 2204.890625 1107.890625 2317.398438 1033.878906 C 2390.691406 985.660156 2396.039062 829.238281 2333.75 555.691406 C 2275.199219 298.621094 2291.519531 135.488281 2383.628906 56.96875 C 2548.691406 -83.75 2930.140625 69.859375 3333.96875 232.488281 C 3643 356.941406 3959.570312 484.410156 4192.351562 484.429688 C 4286.089844 484.441406 4366.199219 463.769531 4426.820312 413.921875 C 4553.351562 309.828125 4582.550781 90.019531 4516.058594 -258.070312 L 4519.738281 -258.769531 C 4586.511719 90.789062 4556.890625 311.769531 4429.199219 416.808594 C 4367.898438 467.238281 4286.929688 488.128906 4192.398438 488.140625 C 3958.730469 488.148438 3641.921875 360.550781 3332.570312 235.96875 C 2929.820312 73.78125 2549.410156 -79.429688 2386.058594 59.820312 C 2295.121094 137.351562 2279.199219 299.28125 2337.398438 554.851562 C 2400.078125 830.109375 2394.21875 987.828125 2319.460938 1037.011719 C 2301.808594 1048.621094 2280.730469 1053.96875 2256.710938 1053.96875 C 2124.699219 1053.980469 1903.699219 892.53125 1671.800781 723.128906 C 1368.949219 501.898438 1055.769531 273.140625 902.570312 371.390625 C 790.289062 443.390625 777.347656 683.230469 863.007812 1104.628906 C 933.339844 1450.660156 927.507812 1641.398438 845.1875 1687.78125 C 831.59375 1695.441406 816.046875 1699.050781 798.785156 1699.050781 C 661.910156 1699.070312 415.835938 1472 157.003906 1233.171875 C -191.582031 911.53125 -586.648438 546.96875 -797.882812 657.648438 C -963.355469 744.351562 -998.820312 1106.390625 -906.300781 1764.449219 L -910.015625 1764.96875 "/>
<path fill-rule="nonzero" fill="rgb(52.294922%, 84.422302%, 92.166138%)" fill-opacity="1" d="M -956.117188 1810.441406 C -1041.449219 1163.300781 -1000.5 805.128906 -830.929688 715.441406 C -733.378906 663.859375 -591.886719 701.429688 -398.371094 830.308594 C -228.441406 943.480469 -42.6875 1109.351562 136.949219 1269.761719 C 429.03125 1530.570312 704.917969 1776.921875 826.304688 1707.738281 C 908.128906 1661.089844 915.667969 1474.53125 849.339844 1137.378906 C 767.945312 723.699219 784.207031 486.328125 899.046875 411.679688 C 1057.46875 308.710938 1374.761719 531.589844 1681.601562 747.121094 C 1957.179688 940.699219 2217.46875 1123.550781 2332.140625 1047.03125 C 2406.089844 997.679688 2413.179688 843.769531 2353.808594 576.46875 C 2298.320312 326.628906 2316.03125 166.53125 2407.949219 87.011719 C 2575.738281 -58.128906 2963.351562 89.089844 3373.71875 244.949219 C 3682.109375 362.078125 3997.878906 482.011719 4233.371094 482.011719 C 4334.410156 482.019531 4420.648438 459.949219 4485.230469 406.121094 C 4611.78125 300.621094 4643 84.738281 4580.679688 -253.871094 L 4584.371094 -254.550781 C 4646.960938 85.511719 4615.308594 302.558594 4487.628906 409 C 4422.351562 463.421875 4335.261719 485.71875 4233.410156 485.71875 C 3997.070312 485.738281 3681.078125 365.699219 3372.390625 248.460938 C 2963.089844 93 2576.5 -53.828125 2410.398438 89.851562 C 2319.628906 168.378906 2302.308594 327.289062 2357.46875 575.660156 C 2417.210938 844.640625 2409.601562 999.839844 2334.21875 1050.148438 C 2315.359375 1062.738281 2292.710938 1068.511719 2266.851562 1068.511719 C 2132.609375 1068.53125 1911.429688 913.148438 1679.449219 750.191406 C 1373.621094 535.371094 1057.398438 313.230469 901.09375 414.828125 C 787.679688 488.539062 771.957031 724.648438 853.019531 1136.648438 C 919.699219 1475.589844 911.566406 1663.449219 828.160156 1710.988281 C 813.617188 1719.28125 796.945312 1723.179688 778.390625 1723.179688 C 639.105469 1723.191406 393.113281 1503.53125 134.449219 1272.550781 C -216.132812 959.5 -613.496094 604.691406 -829.179688 718.761719 C -997.195312 807.621094 -1037.5 1164.550781 -952.402344 1809.949219 L -956.117188 1810.441406 "/>
<path fill-rule="nonzero" fill="rgb(67.475891%, 73.846436%, 90.002441%)" fill-opacity="1" d="M -1003.539062 1855.878906 C -1081.488281 1221.21875 -1035.71875 868.050781 -863.628906 776.171875 C -764.039062 723.011719 -620.742188 757.660156 -425.550781 882.121094 C -254.144531 991.410156 -67.234375 1152.789062 113.519531 1308.851562 C 407.386719 1562.578125 684.964844 1802.199219 808.761719 1730.828125 C 891.675781 1683.011719 901.488281 1499.261719 838.761719 1169.089844 C 761.933594 764.679688 780.929688 530.980469 896.839844 454.621094 C 1058.421875 348.199219 1378.980469 564.480469 1688.980469 773.648438 C 1967.328125 961.460938 2230.230469 1138.839844 2347.070312 1059.738281 C 2421.640625 1009.269531 2430.441406 857.808594 2373.988281 596.710938 C 2321.488281 353.980469 2340.53125 196.878906 2432.179688 116.460938 C 2602.691406 -33.199219 2996.75 107.621094 3413.941406 256.710938 C 3721.480469 366.609375 4036.25 479.078125 4274.308594 479.089844 C 4383.230469 479.101562 4476.058594 455.558594 4544.839844 397.46875 C 4671.320312 290.660156 4704.511719 78.679688 4646.289062 -250.578125 L 4649.980469 -251.238281 C 4708.449219 79.460938 4674.851562 292.589844 4547.269531 400.328125 C 4326.480469 586.789062 3861.929688 420.78125 3412.679688 260.238281 C 2996.558594 111.53125 2603.511719 -28.921875 2434.648438 119.269531 C 2344.109375 198.730469 2325.46875 354.640625 2377.648438 595.921875 C 2434.46875 858.679688 2425.148438 1011.410156 2349.171875 1062.851562 C 2329.019531 1076.488281 2304.691406 1082.710938 2276.839844 1082.71875 C 2140.339844 1082.730469 1918.960938 933.351562 1686.890625 776.761719 C 1377.898438 568.28125 1058.398438 352.699219 898.902344 457.75 C 784.394531 533.179688 765.929688 765.628906 842.445312 1168.390625 C 905.507812 1500.320312 895.101562 1685.359375 810.636719 1734.078125 C 795.078125 1743.050781 777.191406 1747.261719 757.25 1747.261719 C 615.539062 1747.269531 369.59375 1534.898438 111.066406 1311.691406 C -241.714844 1007.101562 -641.574219 661.871094 -861.863281 779.480469 C -1032.429688 870.539062 -1077.558594 1222.488281 -999.824219 1855.421875 L -1003.539062 1855.878906 "/>
<path fill-rule="nonzero" fill="rgb(45.306396%, 53.025818%, 80.171204%)" fill-opacity="1" d="M -1052.308594 1901.238281 C -1122.941406 1278.878906 -1072.390625 930.601562 -897.78125 836.488281 C -796.101562 781.699219 -650.929688 813.429688 -453.953125 933.488281 C -280.980469 1038.929688 -92.8125 1195.871094 89.160156 1347.648438 C 384.988281 1594.390625 664.386719 1827.441406 790.707031 1753.738281 C 874.699219 1704.71875 886.773438 1523.738281 827.621094 1200.441406 C 755.292969 805.191406 776.976562 575.109375 893.910156 497.050781 C 1058.699219 387.050781 1382.75 596.828125 1696.128906 799.699219 C 1977.390625 981.78125 2243.058594 1153.789062 2362.128906 1072.019531 C 2437.269531 1020.421875 2447.75 871.390625 2394.160156 616.421875 C 2344.601562 380.679688 2364.910156 226.570312 2456.230469 145.300781 C 2629.53125 -8.929688 3030.320312 125.46875 3454.628906 267.761719 C 3761.089844 370.53125 4074.609375 475.648438 4315.039062 475.660156 C 4432.460938 475.671875 4532.410156 450.609375 4605.660156 387.960938 C 4731.980469 279.929688 4767.039062 71.839844 4712.839844 -248.199219 L 4716.539062 -248.828125 C 4770.96875 72.628906 4735.5 281.859375 4608.101562 390.808594 C 4534.121094 454.070312 4433.289062 479.371094 4315.050781 479.371094 C 4073.878906 479.378906 3760.179688 374.171875 3453.441406 271.320312 C 3030.191406 129.378906 2630.410156 -4.679688 2458.730469 148.101562 C 2368.488281 228.398438 2348.570312 381.339844 2397.828125 615.648438 C 2451.769531 872.261719 2440.78125 1022.550781 2364.25 1075.109375 C 2342.730469 1089.890625 2316.589844 1096.589844 2286.601562 1096.589844 C 2147.839844 1096.609375 1926.269531 953.160156 1694.089844 802.851562 C 1381.71875 600.628906 1058.730469 391.539062 895.992188 500.171875 C 780.441406 577.308594 759.28125 806.148438 831.308594 1199.761719 C 890.78125 1524.800781 878.117188 1707.070312 792.597656 1756.980469 C 664.027344 1832 383.621094 1598.140625 86.757812 1350.53125 C -268.417969 1054.289062 -670.980469 718.53125 -896 839.789062 C -1069.109375 933.089844 -1119.019531 1280.148438 -1048.578125 1900.820312 L -1052.308594 1901.238281 "/>
<path fill-rule="nonzero" fill="rgb(61.509705%, 69.969177%, 88.079834%)" fill-opacity="1" d="M -1102.378906 1946.558594 C -1165.75 1336.300781 -1110.449219 992.800781 -933.335938 896.449219 C -829.523438 839.960938 -682.390625 868.761719 -483.515625 984.46875 C -308.871094 1086.078125 -119.339844 1238.648438 63.949219 1386.199219 C 361.898438 1626.050781 643.320312 1852.578125 772.152344 1776.5 C 857.199219 1726.28125 871.5 1547.980469 815.878906 1231.449219 C 748.011719 845.25 772.335938 618.75 890.242188 538.988281 C 1058.320312 425.28125 1386.070312 628.621094 1703.03125 825.25 C 1987.410156 1001.679688 2256.03125 1168.308594 2377.359375 1083.800781 C 2453.058594 1031.078125 2465.179688 884.441406 2414.410156 635.480469 C 2367.738281 406.648438 2389.25 255.539062 2480.179688 173.519531 C 2656.300781 14.660156 3064.070312 142.628906 3495.789062 278.121094 C 3960.121094 423.839844 4440.261719 574.519531 4667.710938 377.648438 C 4793.800781 268.511719 4830.660156 64.269531 4780.398438 -246.730469 L 4784.101562 -247.328125 C 4834.589844 65.058594 4797.320312 270.421875 4670.160156 380.480469 C 4591.449219 448.621094 4482.910156 475.5 4355.5 475.5 C 4112.21875 475.519531 3800.058594 377.53125 3494.671875 281.691406 C 3064 146.539062 2657.210938 18.871094 2482.691406 176.300781 C 2392.839844 257.359375 2371.699219 407.308594 2418.078125 634.730469 C 2469.179688 885.308594 2456.570312 1033.210938 2379.511719 1086.878906 C 2356.519531 1102.890625 2328.441406 1110.109375 2296.140625 1110.109375 C 2155.089844 1110.121094 1933.320312 972.53125 1701.050781 828.441406 C 1385.101562 632.441406 1058.398438 429.761719 892.34375 542.089844 C 775.792969 620.941406 751.988281 846.210938 819.566406 1230.800781 C 875.496094 1549.058594 860.609375 1728.609375 774.058594 1779.730469 C 756.261719 1790.25 735.660156 1795.140625 712.617188 1795.140625 C 565.976562 1795.148438 319.984375 1597.121094 61.597656 1389.121094 C -296.175781 1101.121094 -701.675781 774.691406 -931.542969 899.738281 C -1107.179688 995.289062 -1161.839844 1337.578125 -1098.648438 1946.171875 L -1102.378906 1946.558594 "/>
<path fill-rule="nonzero" fill="rgb(45.898438%, 82.356262%, 91.534424%)" fill-opacity="1" d="M -1153.871094 1991.898438 C -1210.019531 1393.53125 -1150 1054.710938 -970.382812 956.070312 C -864.347656 897.859375 -715.164062 923.699219 -514.289062 1035.078125 C -337.871094 1132.898438 -146.867188 1281.148438 37.847656 1424.519531 C 338.101562 1657.570312 621.703125 1877.679688 753.109375 1799.140625 C 839.191406 1747.691406 855.699219 1572.058594 803.578125 1262.210938 C 740.109375 884.921875 767.023438 661.929688 885.855469 580.488281 C 1057.300781 463 1388.96875 659.921875 1709.730469 850.371094 C 1997.398438 1021.171875 2269.109375 1182.5 2392.761719 1095.179688 C 2468.949219 1041.359375 2482.671875 897.078125 2434.691406 654.101562 C 2390.851562 432.039062 2413.511719 283.898438 2503.988281 201.210938 C 2682.949219 37.640625 3098.019531 159.148438 3537.460938 287.800781 C 4010.328125 426.230469 4499.300781 569.378906 4731.03125 366.46875 C 4856.820312 256.320312 4895.410156 55.929688 4849 -246.160156 L 4852.71875 -246.730469 C 4899.328125 56.730469 4860.328125 258.230469 4733.5 369.289062 C 4500.21875 573.558594 4010.261719 430.121094 3536.410156 291.398438 C 3098.011719 163.058594 2683.929688 41.839844 2506.519531 203.96875 C 2417.089844 285.710938 2394.800781 432.710938 2438.371094 653.371094 C 2486.660156 897.960938 2472.449219 1043.480469 2394.921875 1098.238281 C 2370.378906 1115.570312 2340.210938 1123.339844 2305.429688 1123.339844 C 2162.121094 1123.359375 1940.160156 991.550781 1707.808594 853.589844 C 1388.070312 663.75 1057.441406 467.429688 887.972656 583.578125 C 770.472656 664.109375 744.078125 885.890625 807.277344 1261.589844 C 859.683594 1573.140625 842.59375 1750.03125 755.03125 1802.359375 C 735.996094 1813.738281 713.886719 1819.011719 689.113281 1819.011719 C 539.984375 1819.019531 293.914062 1628.019531 35.550781 1427.488281 C -325.03125 1147.621094 -733.714844 830.398438 -968.574219 959.359375 C -1146.738281 1057.199219 -1206.128906 1394.828125 -1150.140625 1991.539062 L -1153.871094 1991.898438 "/>
<path fill-rule="nonzero" fill="rgb(55.932617%, 85.766602%, 95.991516%)" fill-opacity="1" d="M -1206.71875 2037.269531 C -1255.730469 1450.578125 -1191.03125 1116.320312 -1008.910156 1015.390625 C -900.628906 955.371094 -749.300781 978.25 -546.296875 1085.328125 C -368.007812 1179.378906 -175.417969 1323.371094 10.828125 1462.609375 C 313.539062 1688.929688 599.476562 1902.710938 733.535156 1821.621094 C 820.632812 1768.941406 839.320312 1595.921875 790.667969 1292.671875 C 731.535156 924.171875 760.980469 704.640625 880.6875 621.53125 C 1055.589844 500.121094 1391.398438 690.691406 1716.171875 875 C 2007.328125 1040.238281 2282.328125 1196.320312 2408.359375 1106.070312 C 2485.011719 1051.160156 2500.300781 909.21875 2455.089844 672.121094 C 2414.011719 456.71875 2437.769531 311.539062 2527.730469 228.28125 C 2709.578125 59.960938 3132.210938 175 3579.660156 296.78125 C 4061.398438 427.890625 4559.539062 563.46875 4795.609375 354.449219 C 4921.019531 243.410156 4961.261719 46.839844 4918.628906 -246.5 L 4922.339844 -247.039062 C 4965.171875 47.648438 4924.53125 245.308594 4798.101562 357.261719 C 4709 436.140625 4583.070312 466.339844 4435.070312 466.351562 C 4188.410156 466.359375 3880.359375 382.511719 3578.679688 300.398438 C 3132.261719 178.890625 2710.601562 64.140625 2530.28125 231.03125 C 2441.351562 313.339844 2417.949219 457.398438 2458.769531 671.421875 C 2504.289062 910.101562 2488.511719 1053.269531 2410.539062 1109.109375 C 2282.578125 1200.761719 2006.558594 1044.109375 1714.320312 878.261719 C 1390.558594 694.53125 1055.789062 504.53125 882.824219 624.609375 C 764.425781 706.808594 735.492188 925.140625 794.367188 1292.078125 C 843.292969 1597.011719 824.027344 1771.269531 735.476562 1824.828125 C 715.121094 1837.140625 691.386719 1842.820312 664.75 1842.820312 C 513.117188 1842.839844 266.953125 1658.78125 8.582031 1465.609375 C -355.011719 1193.78125 -767.117188 885.679688 -1007.101562 1018.671875 C -1187.78125 1118.808594 -1251.859375 1451.890625 -1202.988281 2036.949219 L -1206.71875 2037.269531 "/>
<path fill-rule="nonzero" fill="rgb(48.419189%, 55.92041%, 81.65741%)" fill-opacity="1" d="M -1261 2082.601562 C -1302.929688 1507.429688 -1233.570312 1177.648438 -1048.980469 1074.410156 C -938.363281 1012.539062 -784.8125 1032.429688 -579.554688 1135.238281 C -399.28125 1225.53125 -204.996094 1365.300781 -17.113281 1500.460938 C 288.257812 1720.148438 576.699219 1927.628906 713.453125 1843.929688 C 801.542969 1790.019531 822.378906 1619.550781 777.152344 1322.78125 C 722.308594 962.988281 754.234375 746.890625 874.75 662.160156 C 1053.199219 536.691406 1393.390625 720.96875 1722.378906 899.179688 C 2017.230469 1058.890625 2295.730469 1209.738281 2424.128906 1116.5 C 2501.210938 1060.53125 2518.019531 920.890625 2475.53125 689.601562 C 2437.148438 480.761719 2461.960938 338.53125 2551.351562 254.78125 C 2736.109375 81.691406 3166.601562 190.199219 3622.378906 305.070312 C 3921.410156 380.441406 4226.671875 457.371094 4473.960938 457.378906 C 4632.691406 457.390625 4767.5 425.699219 4861.519531 341.578125 C 4986.488281 229.769531 5028.308594 36.988281 4989.359375 -247.75 L 4993.078125 -248.261719 C 5032.199219 37.820312 4989.988281 231.671875 4864.019531 344.371094 C 4769.238281 429.179688 4633.5 461.101562 4473.941406 461.109375 C 4226.089844 461.121094 3920.710938 384.128906 3621.460938 308.710938 C 3166.710938 194.089844 2737.179688 85.839844 2553.910156 257.519531 C 2465.53125 340.320312 2441.089844 481.441406 2479.21875 688.921875 C 2522 921.78125 2504.699219 1062.640625 2426.328125 1119.53125 C 2296.019531 1214.160156 2016.511719 1062.761719 1720.589844 902.46875 C 1392.601562 724.808594 1053.441406 541.101562 876.910156 665.21875 C 757.671875 749.058594 726.25 963.96875 780.855469 1322.21875 C 826.339844 1620.648438 804.929688 1792.339844 715.414062 1847.128906 C 693.648438 1860.449219 668.160156 1866.570312 639.523438 1866.570312 C 485.375 1866.601562 239.09375 1689.398438 -19.300781 1503.511719 C -386.128906 1239.609375 -801.894531 940.519531 -1047.140625 1077.679688 C -1230.339844 1180.140625 -1299.070312 1508.761719 -1257.261719 2082.328125 L -1261 2082.601562 "/>
<path fill-rule="nonzero" fill="rgb(62.428284%, 87.710571%, 93.461609%)" fill-opacity="1" d="M -1316.710938 2127.960938 C -1351.609375 1564.140625 -1277.648438 1238.75 -1090.601562 1133.179688 C -977.574219 1069.398438 -821.710938 1086.308594 -614.097656 1184.859375 C -431.734375 1271.429688 -235.640625 1407.03125 -46 1538.171875 C 262.195312 1751.289062 553.304688 1952.589844 692.855469 1866.179688 C 781.90625 1811.03125 804.859375 1643.078125 763.023438 1352.71875 C 712.417969 1001.488281 746.773438 788.769531 868.058594 702.429688 C 1050.128906 572.808594 1394.941406 750.808594 1728.390625 922.960938 C 2027.121094 1077.171875 2309.28125 1222.808594 2440.128906 1126.519531 C 2517.589844 1069.511719 2535.878906 932.148438 2496.070312 706.589844 C 2460.339844 504.160156 2486.121094 364.859375 2574.898438 280.71875 C 2762.621094 102.808594 3201.269531 204.761719 3665.679688 312.679688 C 3961.789062 381.5 4263.929688 451.699219 4512 451.710938 C 4683.25 451.71875 4828.699219 418.28125 4928.769531 327.859375 C 5053.21875 215.398438 5096.539062 26.410156 5061.210938 -249.890625 L 5064.929688 -250.371094 C 5100.429688 27.25 5056.710938 217.289062 4931.28125 330.640625 C 4830.460938 421.75 4684.039062 455.429688 4511.960938 455.441406 C 4263.371094 455.460938 3961.160156 385.199219 3664.828125 316.339844 C 3201.429688 208.640625 2763.730469 106.921875 2577.46875 283.441406 C 2489.691406 366.648438 2464.269531 504.851562 2499.761719 705.941406 C 2539.851562 933.039062 2521.070312 1071.601562 2442.359375 1129.539062 C 2412.539062 1151.480469 2375.128906 1161.121094 2331.648438 1161.121094 C 2181.570312 1161.128906 1959.121094 1046.289062 1726.671875 926.289062 C 1394.21875 754.660156 1050.441406 577.191406 870.234375 705.488281 C 750.199219 790.941406 716.347656 1002.46875 766.734375 1352.179688 C 808.808594 1644.179688 785.285156 1813.351562 694.828125 1869.371094 C 671.558594 1883.78125 644.210938 1890.371094 613.402344 1890.371094 C 456.730469 1890.378906 210.292969 1719.960938 -48.136719 1541.25 C -418.410156 1285.199219 -838.089844 995 -1088.75 1136.449219 C -1274.429688 1241.230469 -1347.769531 1565.480469 -1312.960938 2127.71875 L -1316.710938 2127.960938 "/>
<path fill-rule="nonzero" fill="rgb(40.010071%, 64.34021%, 86.933899%)" fill-opacity="1" d="M -1373.871094 2173.429688 C -1401.800781 1620.761719 -1323.261719 1299.648438 -1133.761719 1191.75 C -875.523438 1044.71875 -450.65625 1326.800781 -75.804688 1575.671875 C 235.398438 1782.300781 529.347656 1977.460938 671.726562 1888.25 C 761.71875 1831.878906 786.753906 1666.378906 748.269531 1382.328125 C 701.835938 1039.539062 738.570312 830.179688 860.570312 742.269531 C 1046.371094 608.390625 1396.039062 780.148438 1734.191406 946.261719 C 2036.988281 1095.011719 2323 1235.511719 2456.359375 1136.039062 C 2534.148438 1078.03125 2553.890625 942.929688 2516.71875 723.03125 C 2483.570312 526.910156 2510.269531 390.539062 2598.371094 306.109375 C 2789.070312 123.371094 3236.160156 218.691406 3709.511719 319.621094 C 4219.941406 428.449219 4747.730469 540.96875 4997.378906 313.28125 C 5121.269531 200.28125 5166.03125 15.050781 5134.199219 -253.011719 L 5137.929688 -253.449219 C 5169.898438 15.890625 5124.761719 202.179688 4999.910156 316.050781 C 4892.621094 413.898438 4734.558594 449.359375 4548.890625 449.371094 C 4300.050781 449.378906 4001.570312 385.71875 3708.730469 323.289062 C 3236.390625 222.578125 2790.238281 127.449219 2600.96875 308.820312 C 2513.828125 392.320312 2487.488281 527.601562 2520.421875 722.398438 C 2557.851562 943.828125 2537.628906 1080.121094 2458.601562 1139.050781 C 2426.808594 1162.761719 2386.601562 1173.101562 2339.769531 1173.101562 C 2187.46875 1173.109375 1964.941406 1063.789062 1732.539062 949.628906 C 1395.378906 784 1046.738281 612.738281 862.765625 745.308594 C 741.992188 832.339844 705.757812 1040.539062 751.984375 1381.820312 C 790.6875 1667.5 765.085938 1834.191406 673.714844 1891.429688 C 648.839844 1907.019531 619.476562 1914.109375 586.351562 1914.109375 C 427.152344 1914.121094 180.578125 1750.398438 -77.882812 1578.800781 C -451.828125 1330.519531 -875.65625 1049.128906 -1131.898438 1195.011719 C -1320.050781 1302.128906 -1397.980469 1622.121094 -1370.121094 2173.238281 L -1373.871094 2173.429688 "/>
<path fill-rule="nonzero" fill="rgb(66.897583%, 68.930054%, 84.725952%)" fill-opacity="1" d="M -1432.550781 2218.949219 C -1453.578125 1677.261719 -1370.5 1360.351562 -1178.570312 1250.121094 C -914.621094 1098.539062 -485.335938 1371.871094 -106.585938 1613.019531 C 207.839844 1813.210938 504.832031 2002.328125 650.121094 1910.230469 C 741.019531 1852.621094 768.117188 1689.558594 732.953125 1411.730469 C 690.621094 1077.269531 729.667969 871.210938 852.320312 781.78125 C 1041.941406 643.53125 1396.691406 809.058594 1739.761719 969.171875 C 2046.839844 1112.46875 2336.898438 1247.839844 2472.808594 1145.140625 C 2550.878906 1086.160156 2572.03125 953.300781 2537.46875 738.96875 C 2506.828125 549.03125 2534.410156 415.570312 2621.789062 330.960938 C 2815.519531 143.351562 3271.371094 232.019531 3753.980469 325.878906 C 4042.511719 382 4336.550781 439.171875 4584.609375 439.179688 C 4784.199219 439.191406 4953.988281 402.199219 5067.398438 297.871094 C 5190.648438 184.46875 5236.761719 2.980469 5208.359375 -256.980469 L 5212.089844 -257.378906 C 5240.628906 3.839844 5194.128906 186.359375 5069.941406 300.621094 C 4955.761719 405.671875 4784.980469 442.910156 4584.550781 442.921875 C 4336.070312 442.929688 4041.980469 385.71875 3753.269531 329.558594 C 3271.648438 235.890625 2816.730469 147.410156 2624.398438 333.648438 C 2537.96875 417.351562 2510.75 549.730469 2541.179688 738.371094 C 2575.980469 954.199219 2554.359375 1088.230469 2475.070312 1148.140625 C 2441.171875 1173.75 2397.96875 1184.820312 2347.519531 1184.828125 C 2193.03125 1184.828125 1970.460938 1080.96875 1738.179688 972.558594 C 1396.089844 812.921875 1042.359375 647.851562 854.53125 784.808594 C 733.082031 873.359375 694.53125 1078.28125 736.675781 1411.269531 C 772.035156 1690.679688 744.378906 1854.929688 652.125 1913.390625 C 625.53125 1930.25 594.011719 1937.878906 558.378906 1937.878906 C 396.644531 1937.890625 149.902344 1780.78125 -108.597656 1616.191406 C -486.457031 1375.601562 -914.730469 1102.910156 -1176.699219 1253.371094 C -1367.308594 1362.839844 -1449.78125 1678.628906 -1428.800781 2218.808594 L -1432.550781 2218.949219 "/>
<path fill-rule="nonzero" fill="rgb(70.062256%, 71.212769%, 88.497925%)" fill-opacity="1" d="M -1492.710938 2264.621094 C -1506.910156 1733.710938 -1419.328125 1420.910156 -1224.980469 1308.351562 C -955.167969 1152.058594 -521.195312 1416.730469 -138.316406 1650.238281 C 179.496094 1844.050781 479.6875 2027.128906 627.964844 1932.078125 C 719.742188 1873.261719 748.859375 1712.589844 716.976562 1440.898438 C 678.691406 1114.648438 719.996094 911.871094 843.246094 820.960938 C 1036.789062 678.21875 1396.878906 837.570312 1745.128906 991.671875 C 2056.691406 1129.550781 2350.980469 1259.800781 2489.5 1153.800781 C 2567.820312 1093.878906 2590.328125 963.238281 2558.320312 754.421875 C 2530.128906 570.511719 2558.53125 439.941406 2645.148438 355.230469 C 2841.960938 162.78125 3306.851562 244.71875 3799.050781 331.46875 C 4082.710938 381.46875 4371.621094 432.371094 4618.660156 432.378906 C 4834.300781 432.390625 5018.03125 393.628906 5138.800781 281.628906 C 5261.378906 167.949219 5308.78125 -9.820312 5283.71875 -261.851562 L 5287.449219 -262.21875 C 5312.640625 -8.949219 5264.851562 169.851562 5141.351562 284.378906 C 4880.859375 525.941406 4330.578125 428.960938 3798.398438 335.160156 C 3307.191406 248.578125 2843.199219 166.808594 2647.78125 357.910156 C 2562.078125 441.710938 2534.03125 571.230469 2562.03125 753.851562 C 2594.261719 964.148438 2571.28125 1095.949219 2491.78125 1156.78125 C 2455.648438 1184.421875 2409.21875 1196.28125 2354.871094 1196.28125 C 2198.230469 1196.289062 1975.710938 1097.808594 1743.609375 995.101562 C 1396.351562 841.429688 1037.261719 682.519531 845.472656 823.980469 C 723.402344 914.019531 682.589844 1115.671875 720.699219 1440.460938 C 752.769531 1713.71875 723.097656 1875.558594 629.988281 1935.238281 C 601.570312 1953.449219 567.714844 1961.660156 529.398438 1961.660156 C 365.140625 1961.679688 118.265625 1811.101562 -140.269531 1653.441406 C -522.257812 1420.480469 -955.21875 1156.449219 -1223.101562 1311.589844 C -1416.148438 1423.398438 -1503.121094 1735.101562 -1488.960938 2264.519531 L -1492.710938 2264.621094 "/>
<path fill-rule="nonzero" fill="rgb(44.630432%, 56.10199%, 81.942749%)" fill-opacity="1" d="M -1554.398438 2310.320312 C -1561.808594 1790.03125 -1469.78125 1481.269531 -1273.03125 1366.398438 C -997.179688 1205.320312 -558.273438 1461.378906 -171.035156 1687.289062 C 150.367188 1874.800781 453.941406 2051.898438 605.273438 1953.820312 C 697.90625 1893.789062 729.011719 1735.46875 700.367188 1469.828125 C 666.066406 1151.679688 709.574219 952.140625 833.371094 859.808594 C 1030.941406 712.480469 1396.628906 865.640625 1750.269531 1013.761719 C 2066.539062 1146.230469 2365.269531 1271.359375 2506.429688 1162 C 2584.941406 1101.179688 2608.769531 972.738281 2579.289062 769.339844 C 2553.480469 591.359375 2582.648438 463.671875 2668.480469 378.96875 C 2868.390625 181.660156 3342.640625 256.808594 3844.730469 336.371094 C 4386.960938 422.289062 4947.640625 511.128906 5211.660156 264.5 C 5333.511719 150.660156 5382.140625 -23.410156 5360.320312 -267.691406 L 5364.050781 -268.019531 C 5385.988281 -22.519531 5336.96875 152.558594 5214.210938 267.238281 C 4948.859375 515.121094 4387.261719 426.128906 3844.148438 340.078125 C 3343.011719 260.671875 2869.671875 185.671875 2671.109375 381.628906 C 2586.191406 465.441406 2557.371094 592.078125 2583 768.800781 C 2612.691406 973.660156 2588.398438 1103.25 2508.730469 1164.960938 C 2470.230469 1194.78125 2420.320312 1207.460938 2361.78125 1207.460938 C 2203.03125 1207.480469 1980.640625 1114.320312 1748.828125 1017.21875 C 1396.148438 869.511719 1031.46875 716.761719 835.613281 862.820312 C 712.96875 954.28125 669.949219 1152.710938 704.097656 1469.429688 C 732.90625 1736.621094 701.246094 1896.089844 607.3125 1956.96875 C 576.9375 1976.660156 540.609375 1985.460938 499.390625 1985.460938 C 332.621094 1985.46875 85.601562 1841.351562 -172.925781 1690.53125 C -559.277344 1465.140625 -997.1875 1209.679688 -1271.140625 1369.628906 C -1466.621094 1483.769531 -1558.050781 1791.449219 -1550.648438 2310.269531 L -1554.398438 2310.320312 "/>
<path fill-rule="nonzero" fill="rgb(68.852234%, 76.963806%, 91.477966%)" fill-opacity="1" d="M -1617.648438 2356.210938 C -1618.371094 1846.359375 -1521.921875 1541.550781 -1322.800781 1424.371094 C -1040.691406 1258.378906 -596.585938 1505.878906 -204.75 1724.238281 C 120.453125 1905.46875 427.613281 2076.628906 582.074219 1975.449219 C 675.523438 1914.21875 708.578125 1758.230469 683.136719 1498.558594 C 652.742188 1188.359375 698.382812 992.03125 822.671875 898.359375 C 1024.378906 746.339844 1395.910156 893.320312 1755.210938 1035.46875 C 2076.390625 1162.53125 2379.761719 1282.539062 2523.628906 1169.769531 C 2602.289062 1108.101562 2627.398438 981.851562 2600.378906 783.78125 C 2576.890625 611.578125 2606.789062 486.738281 2691.78125 402.140625 C 2894.828125 200.011719 3378.738281 268.308594 3891.070312 340.609375 C 4444.601562 418.730469 5016.980469 499.5 5285.980469 246.558594 C 5407.070312 132.699219 5456.859375 -37.710938 5438.191406 -274.410156 L 5441.929688 -274.710938 C 5460.691406 -36.800781 5410.519531 134.601562 5288.550781 249.300781 C 5150.5 379.101562 4933.371094 421.511719 4680.160156 421.519531 C 4437.550781 421.53125 4161.828125 382.609375 3890.550781 344.320312 C 3379.160156 272.148438 2896.171875 203.988281 2694.421875 404.800781 C 2610.320312 488.511719 2580.769531 612.308594 2604.089844 783.28125 C 2631.308594 982.78125 2605.738281 1110.160156 2525.941406 1172.71875 C 2484.929688 1204.871094 2431.269531 1218.398438 2368.210938 1218.410156 C 2207.429688 1218.421875 1985.25 1130.511719 1753.828125 1038.949219 C 1395.488281 897.191406 1024.941406 750.601562 824.929688 901.351562 C 701.773438 994.179688 656.613281 1189.398438 686.867188 1498.191406 C 712.460938 1759.378906 678.855469 1916.519531 584.128906 1978.578125 C 427.757812 2081.039062 119.644531 1909.308594 -206.574219 1727.519531 C -597.53125 1509.640625 -1040.648438 1262.699219 -1320.890625 1427.601562 C -1518.78125 1544.050781 -1614.621094 1847.800781 -1613.898438 2356.210938 L -1617.648438 2356.210938 "/>
<path fill-rule="nonzero" fill="rgb(62.458801%, 85.694885%, 94.430542%)" fill-opacity="1" d="M -1678.738281 2402.308594 L -1682.488281 2402.261719 C -1676.570312 1902.648438 -1575.75 1601.710938 -1374.25 1482.25 C -1085.75 1311.210938 -636.136719 1550.21875 -239.464844 1761.089844 C 89.730469 1936.101562 400.667969 2101.398438 558.335938 1996.988281 C 652.578125 1934.601562 687.558594 1780.878906 665.28125 1527.089844 C 638.722656 1224.730469 686.441406 1031.589844 811.164062 936.621094 C 1017.101562 779.820312 1394.730469 920.621094 1759.941406 1056.78125 C 2086.238281 1178.441406 2394.460938 1293.359375 2541.101562 1177.070312 C 2619.878906 1114.621094 2646.210938 990.53125 2621.621094 797.730469 C 2600.378906 631.171875 2630.960938 509.191406 2715.078125 424.789062 C 2921.339844 217.859375 3415.210938 279.230469 3938.070312 344.191406 C 4503.269531 414.410156 5087.71875 487.03125 5361.789062 227.800781 C 5482.078125 114.019531 5532.960938 -52.75 5517.359375 -282.058594 L 5521.101562 -282.308594 C 5536.789062 -51.820312 5485.519531 115.929688 5364.371094 230.519531 C 5089.011719 490.960938 4503.671875 418.238281 3937.609375 347.910156 C 3415.691406 283.070312 2922.699219 221.808594 2717.730469 427.441406 C 2634.480469 510.960938 2604.261719 631.929688 2625.351562 797.25 C 2650.121094 991.46875 2623.320312 1116.671875 2543.429688 1180.011719 C 2395.140625 1297.609375 2085.949219 1182.328125 1758.628906 1060.289062 C 1394.371094 924.488281 1017.71875 784.050781 813.4375 939.609375 C 689.820312 1033.730469 642.582031 1225.789062 669.015625 1526.761719 C 691.425781 1782.050781 655.902344 1936.890625 560.40625 2000.121094 C 487.445312 2048.429688 380.941406 2044.800781 225.25 1988.699219 C 86.972656 1938.878906 -72.445312 1854.128906 -241.226562 1764.410156 C -637.023438 1553.988281 -1085.628906 1315.5 -1372.328125 1485.480469 C -1572.609375 1604.21875 -1672.839844 1904.121094 -1678.738281 2402.308594 "/>
<path fill-rule="nonzero" fill="rgb(46.27533%, 54.008484%, 80.683899%)" fill-opacity="1" d="M -1745.179688 2448.550781 L -1748.929688 2448.449219 C -1736.441406 1958.929688 -1631.28125 1661.800781 -1427.441406 1540.078125 C -1132.300781 1363.871094 -676.949219 1594.421875 -275.195312 1797.851562 C 58.195312 1966.671875 373.085938 2126.101562 534.050781 2018.441406 C 629.046875 1954.890625 665.902344 1803.429688 646.734375 1555.429688 C 623.957031 1260.78125 673.703125 1070.800781 798.816406 974.609375 C 1009.101562 812.949219 1393.109375 947.550781 1764.46875 1077.71875 C 2096.128906 1193.96875 2409.390625 1303.78125 2558.859375 1183.949219 C 2637.699219 1120.75 2665.238281 998.808594 2643.03125 811.179688 C 2623.96875 650.128906 2655.160156 530.960938 2738.398438 446.871094 C 2947.890625 235.179688 3452.03125 289.539062 3985.761719 347.089844 C 4239.378906 374.441406 4496.859375 402.199219 4729.46875 402.199219 C 5026.238281 402.210938 5282.539062 357.039062 5439.089844 208.210938 C 5558.550781 94.640625 5610.480469 -68.53125 5597.839844 -290.628906 L 5601.578125 -290.839844 C 5614.289062 -67.578125 5561.980469 96.558594 5441.679688 210.929688 C 5161.171875 477.601562 4563.410156 413.160156 3985.359375 350.820312 C 3452.550781 293.371094 2949.289062 239.101562 2741.058594 449.5 C 2658.691406 532.738281 2627.839844 650.898438 2646.75 810.738281 C 2669.121094 999.761719 2641.140625 1122.800781 2561.199219 1186.878906 C 2514.679688 1224.171875 2452.648438 1239.539062 2379.410156 1239.550781 C 2214.808594 1239.558594 1993.460938 1161.960938 1763.230469 1081.261719 C 1392.808594 951.421875 1009.769531 817.148438 801.101562 977.589844 C 677.074219 1072.941406 627.804688 1261.851562 650.472656 1555.128906 C 669.757812 1804.621094 632.355469 1957.179688 536.136719 2021.550781 C 461.699219 2071.359375 353.519531 2069.808594 195.703125 2016.699219 C 55.519531 1969.511719 -105.945312 1887.761719 -276.890625 1801.199219 C -677.777344 1598.210938 -1132.140625 1368.140625 -1425.519531 1543.300781 C -1521.410156 1600.558594 -1596.578125 1699.859375 -1648.941406 1838.441406 C -1706.351562 1990.398438 -1738.730469 2195.671875 -1745.179688 2448.550781 "/>
<path fill-rule="nonzero" fill="rgb(30.906677%, 37.818909%, 71.362305%)" fill-opacity="1" d="M -1813.261719 2495 L -1817.011719 2494.851562 C -1798.03125 2015.210938 -1688.578125 1721.800781 -1482.410156 1597.859375 C -1180.449219 1416.351562 -719.050781 1638.519531 -311.96875 1834.539062 C 25.832031 1997.199219 344.894531 2150.828125 509.222656 2039.808594 C 604.941406 1975.140625 643.644531 1825.910156 627.542969 1583.601562 C 608.460938 1296.539062 660.167969 1109.691406 785.613281 1012.371094 C 1000.378906 845.769531 1391 974.148438 1768.769531 1098.300781 C 2106 1209.140625 2424.519531 1313.820312 2576.890625 1190.398438 C 2655.769531 1126.511719 2684.449219 1006.710938 2664.578125 824.171875 C 2647.628906 668.488281 2679.398438 552.121094 2761.71875 468.398438 C 2974.5 252.011719 3489.199219 299.28125 4034.128906 349.328125 C 4276.421875 371.578125 4522.199219 394.148438 4747.320312 394.148438 C 5070 394.160156 5350.320312 347.820312 5517.929688 187.78125 C 5636.539062 74.53125 5689.449219 -85.078125 5679.679688 -300.160156 L 5683.429688 -300.328125 C 5693.25 -84.101562 5639.960938 76.449219 5520.519531 190.5 C 5234.738281 463.371094 4624.210938 407.289062 4033.78125 353.058594 C 3489.769531 303.101562 2975.921875 255.898438 2764.398438 471.03125 C 2682.921875 553.890625 2651.488281 669.269531 2668.308594 823.761719 C 2688.320312 1007.671875 2659.199219 1128.550781 2579.261719 1193.308594 C 2529.710938 1233.449219 2462.988281 1249.789062 2384.039062 1249.800781 C 2217.691406 1249.800781 1996.96875 1177.25 1767.601562 1101.871094 C 1390.761719 978.019531 1001.089844 849.949219 787.910156 1015.339844 C 663.527344 1111.828125 612.292969 1297.628906 631.28125 1583.359375 C 647.480469 1827.109375 608.242188 1977.429688 511.324219 2042.910156 C 435.363281 2094.238281 325.445312 2094.789062 165.414062 2044.660156 C 23.234375 2000.109375 -140.378906 1921.328125 -313.59375 1837.921875 C -719.820312 1642.320312 -1180.238281 1420.609375 -1480.46875 1601.078125 C -1577.519531 1659.421875 -1654.308594 1758.480469 -1708.691406 1895.5 C -1768.28125 2045.648438 -1803.460938 2247.351562 -1813.261719 2495 "/>
<path fill-rule="nonzero" fill="rgb(59.088135%, 68.293762%, 87.45575%)" fill-opacity="1" d="M -1882.980469 2541.660156 L -1886.730469 2541.449219 C -1861.339844 2071.519531 -1747.640625 1781.78125 -1539.148438 1655.660156 C -1230.160156 1468.75 -762.460938 1682.539062 -349.808594 1871.171875 C -7.390625 2027.699219 316.039062 2175.53125 483.835938 2061.089844 C 580.25 1995.320312 620.761719 1848.289062 607.6875 1611.589844 C 592.238281 1331.96875 645.851562 1148.230469 771.589844 1049.839844 C 990.941406 878.21875 1388.46875 1000.371094 1772.921875 1118.5 C 2115.929688 1223.910156 2439.921875 1323.460938 2595.230469 1196.398438 C 2674.089844 1131.878906 2703.871094 1014.21875 2686.289062 836.679688 C 2671.390625 686.238281 2703.699219 572.648438 2785.078125 489.410156 C 3001.191406 268.359375 3526.78125 308.449219 4083.238281 350.910156 C 4311.941406 368.359375 4543.671875 386.039062 4758.941406 386.039062 C 5110.628906 386.039062 5418.511719 338.890625 5598.351562 166.550781 C 5716.089844 53.730469 5769.921875 -102.339844 5762.941406 -310.589844 L 5766.691406 -310.710938 C 5773.710938 -101.339844 5719.5 55.648438 5600.949219 169.25 C 5420.238281 342.421875 5111.339844 389.78125 4758.839844 389.78125 C 4543.410156 389.789062 4311.75 372.109375 4082.949219 354.648438 C 3527.398438 312.269531 3002.648438 272.230469 2787.761719 492.03125 C 2707.199219 574.429688 2675.230469 687.039062 2690.019531 836.308594 C 2707.738281 1015.191406 2677.511719 1133.929688 2597.609375 1199.300781 C 2440.75 1327.640625 2115.820312 1227.800781 1771.808594 1122.089844 C 1388.289062 1004.238281 991.707031 882.378906 773.902344 1052.800781 C 649.203125 1150.371094 596.058594 1333.078125 611.429688 1611.378906 C 624.585938 1849.511719 583.539062 1997.621094 485.949219 2064.191406 C 408.425781 2117.070312 296.707031 2119.738281 134.351562 2072.578125 C -9.90625 2030.671875 -175.765625 1954.851562 -351.367188 1874.578125 C -763.175781 1686.339844 -1229.910156 1472.980469 -1537.210938 1658.859375 C -1635.398438 1718.261719 -1713.78125 1817.089844 -1770.179688 1952.589844 C -1831.929688 2100.941406 -1869.878906 2299.128906 -1882.980469 2541.660156 "/>
<path fill-rule="nonzero" fill="rgb(41.015625%, 81.022644%, 96.136475%)" fill-opacity="1" d="M -1954.429688 2588.539062 L -1958.171875 2588.28125 C -1926.429688 2127.878906 -1808.519531 1841.730469 -1597.71875 1713.46875 C -1281.480469 1521.050781 -807.171875 1726.5 -388.695312 1907.769531 C -41.441406 2058.179688 286.546875 2200.261719 457.898438 2082.308594 C 554.972656 2015.488281 597.253906 1870.640625 587.160156 1639.460938 C 575.265625 1367.148438 630.722656 1186.480469 756.707031 1087.121094 C 980.773438 910.410156 1385.46875 1026.300781 1776.839844 1138.378906 C 2125.871094 1238.320312 2455.539062 1332.730469 2613.871094 1201.980469 C 2692.679688 1136.898438 2723.53125 1021.351562 2708.179688 848.71875 C 2695.25 703.371094 2728.070312 592.519531 2808.511719 509.839844 C 3027.988281 284.210938 3564.769531 317.050781 4133.078125 351.820312 C 4748.511719 389.46875 5384.878906 428.410156 5680.339844 144.5 C 5797.179688 32.21875 5851.898438 -120.371094 5847.609375 -321.96875 L 5851.359375 -322.050781 C 5855.671875 -119.339844 5800.578125 34.148438 5682.941406 147.199219 C 5386.289062 432.25 4749.089844 393.261719 4132.851562 355.558594 C 3565.441406 320.839844 3029.488281 288.050781 2811.191406 512.449219 C 2731.570312 594.308594 2699.089844 704.191406 2711.910156 848.390625 C 2727.378906 1022.339844 2696.089844 1138.941406 2616.261719 1204.871094 C 2560.089844 1251.261719 2482.820312 1269.648438 2391.050781 1269.648438 C 2221.660156 1269.660156 2002.828125 1206.988281 1775.800781 1141.980469 C 1385.339844 1030.171875 981.585938 914.550781 759.027344 1090.070312 C 634.058594 1188.621094 579.066406 1368.28125 590.902344 1639.300781 C 601.0625 1871.871094 558.25 2017.789062 460.023438 2085.398438 C 380.894531 2139.871094 267.300781 2144.660156 102.550781 2100.480469 C -43.878906 2061.21875 -212.09375 1988.359375 -390.1875 1911.210938 C -807.824219 1730.308594 -1281.191406 1525.261719 -1595.769531 1716.671875 C -1805.460938 1844.25 -1922.78125 2129.441406 -1954.429688 2588.539062 "/>
<path fill-rule="nonzero" fill="rgb(71.177673%, 72.47467%, 86.253357%)" fill-opacity="1" d="M -2027.601562 2635.648438 L -2031.328125 2635.328125 C -1993.320312 2184.269531 -1871.25 1901.640625 -1658.148438 1771.289062 C -1334.441406 1573.269531 -853.242188 1770.398438 -428.683594 1944.320312 C -76.382812 2088.640625 256.378906 2224.96875 431.378906 2103.460938 C 529.082031 2035.628906 573.09375 1892.921875 565.925781 1667.171875 C 557.503906 1402.03125 614.753906 1224.410156 740.941406 1124.160156 C 969.839844 942.320312 1381.96875 1051.910156 1780.539062 1157.878906 C 2135.808594 1252.351562 2471.398438 1341.601562 2632.808594 1207.121094 C 2711.539062 1141.53125 2743.410156 1028.078125 2730.25 860.269531 C 2719.238281 719.871094 2752.511719 611.738281 2831.988281 529.691406 C 3054.929688 299.550781 3603.21875 325.050781 4183.699219 352.039062 C 4812.558594 381.289062 5462.859375 411.53125 5763.941406 121.628906 C 5879.890625 9.988281 5935.441406 -139.148438 5933.75 -334.289062 L 5937.5 -334.328125 C 5939.191406 -138.101562 5883.269531 11.929688 5766.539062 124.328125 C 5464.289062 415.351562 4813.171875 385.070312 4183.53125 355.789062 C 3603.921875 328.839844 3056.441406 303.371094 2834.691406 532.300781 C 2756 613.53125 2723.058594 720.710938 2733.988281 859.980469 C 2747.25 1029.089844 2714.941406 1143.578125 2635.210938 1210 C 2575.398438 1259.820312 2492.171875 1279.289062 2393.179688 1279.300781 C 2222.539062 1279.308594 2005.03125 1221.460938 1779.570312 1161.511719 C 1381.910156 1055.769531 970.699219 946.429688 743.273438 1127.101562 C 618.078125 1226.558594 561.292969 1403.171875 569.675781 1667.050781 C 576.886719 1894.171875 532.347656 2037.929688 433.515625 2106.539062 C 352.742188 2162.609375 237.214844 2169.550781 69.949219 2128.351562 C -78.730469 2091.730469 -249.40625 2021.808594 -430.101562 1947.789062 C -853.839844 1774.210938 -1334.101562 1577.460938 -1656.191406 1774.488281 C -1868.210938 1904.171875 -1989.691406 2185.859375 -2027.601562 2635.648438 "/>
<path fill-rule="nonzero" fill="rgb(58.255005%, 59.475708%, 83.117676%)" fill-opacity="1" d="M -2102.519531 2683.039062 L -2106.25 2682.671875 C -2083.429688 2454.488281 -2037.230469 2266.019531 -1968.96875 2122.46875 C -1906.289062 1990.691406 -1822.671875 1892.011719 -1720.429688 1829.179688 C -1389.011719 1625.46875 -900.636719 1814.289062 -469.757812 1980.859375 C -112.195312 2119.089844 225.539062 2249.660156 404.28125 2124.550781 C 502.589844 2055.738281 548.296875 1915.148438 544.011719 1694.75 C 539 1436.640625 597.984375 1262.050781 724.34375 1161 C 958.226562 973.980469 1378.058594 1077.230469 1784.070312 1177.078125 C 2145.820312 1266.050781 2487.511719 1350.070312 2652.070312 1211.871094 C 2730.679688 1145.851562 2763.539062 1034.480469 2752.511719 871.390625 C 2743.339844 735.800781 2777.039062 630.339844 2855.558594 549.011719 C 3081.988281 314.441406 3642.109375 332.5 4235.101562 351.609375 C 4877.78125 372.328125 5542.351562 393.75 5849.191406 97.960938 C 5964.230469 -12.949219 6020.558594 -158.679688 6021.398438 -347.558594 L 6025.148438 -347.539062 C 6024.308594 -157.601562 5967.601562 -10.988281 5851.789062 100.660156 C 5543.808594 397.550781 4878.441406 376.101562 4234.980469 355.359375 C 3642.828125 336.269531 3083.53125 318.238281 2858.261719 551.609375 C 2780.519531 632.140625 2747.160156 736.660156 2756.25 871.140625 C 2767.371094 1035.5 2734.078125 1147.898438 2654.488281 1214.738281 C 2488.46875 1354.191406 2145.871094 1269.929688 1783.171875 1180.71875 C 1378.039062 1081.078125 959.117188 978.058594 726.683594 1163.929688 C 601.300781 1264.199219 542.773438 1437.800781 547.761719 1694.679688 C 552.070312 1916.429688 505.839844 2058.039062 406.433594 2127.621094 C 323.960938 2185.339844 206.429688 2194.421875 36.566406 2156.210938 C -114.457031 2122.238281 -287.695312 2055.261719 -471.109375 1984.359375 C -901.175781 1818.101562 -1388.628906 1629.648438 -1718.46875 1832.371094 C -1932.808594 1964.101562 -2058.429688 2242.371094 -2102.519531 2683.039062 "/>
<path fill-rule="nonzero" fill="rgb(46.324158%, 77.745056%, 93.713379%)" fill-opacity="1" d="M -2179.238281 2730.730469 L -2182.96875 2730.300781 C -2156.988281 2506.839844 -2108.148438 2321.609375 -2037.800781 2179.738281 C -1973.160156 2049.398438 -1887.980469 1950.960938 -1784.628906 1887.171875 C -1445.261719 1677.699219 -949.4375 1858.179688 -511.964844 2017.410156 C -148.910156 2149.558594 194.015625 2274.378906 376.617188 2145.601562 C 475.503906 2075.871094 522.871094 1937.371094 521.421875 1722.199219 C 519.726562 1470.96875 580.386719 1299.378906 706.871094 1197.628906 C 945.847656 1005.378906 1373.671875 1102.261719 1787.390625 1195.929688 C 2155.859375 1279.359375 2503.878906 1358.160156 2671.648438 1216.191406 C 2750.121094 1149.789062 2783.910156 1040.488281 2774.960938 882.039062 C 2767.570312 751.109375 2801.671875 648.308594 2879.210938 567.769531 C 3109.191406 328.871094 3681.429688 339.390625 4287.28125 350.519531 C 4725.378906 358.578125 5178.371094 366.910156 5523.171875 279.851562 C 5912.480469 181.550781 6104.621094 -28.339844 6110.570312 -361.800781 L 6114.320312 -361.730469 C 6111.148438 -184.449219 6054.609375 -39.609375 5946.25 68.761719 C 5848.929688 166.089844 5710.839844 236.328125 5524.089844 283.480469 C 5178.808594 370.660156 4725.539062 362.328125 4287.210938 354.269531 C 3682.210938 343.160156 3110.761719 332.648438 2881.910156 570.371094 C 2805.140625 650.121094 2771.378906 752 2778.699219 881.828125 C 2787.71875 1041.539062 2753.5 1151.839844 2674.078125 1219.050781 C 2504.871094 1362.230469 2155.960938 1283.230469 1786.558594 1199.589844 C 1373.699219 1106.109375 946.789062 1009.449219 709.222656 1200.550781 C 583.6875 1301.539062 523.484375 1472.160156 525.171875 1722.171875 C 526.628906 1938.660156 478.742188 2078.171875 378.777344 2148.671875 C 294.570312 2208.058594 174.964844 2219.308594 2.375 2184.078125 C -151.082031 2152.761719 -327 2088.730469 -513.246094 2020.929688 C -949.914062 1861.988281 -1444.851562 1681.851562 -1782.660156 1890.359375 C -1999.320312 2024.089844 -2129.050781 2298.980469 -2179.238281 2730.730469 "/>
<path fill-rule="nonzero" fill="rgb(69.352722%, 75.483704%, 90.69519%)" fill-opacity="1" d="M -2257.71875 2778.699219 L -2261.441406 2778.210938 C -2232.351562 2559.371094 -2180.890625 2377.300781 -2108.480469 2237.070312 C -2041.898438 2108.140625 -1955.160156 2009.949219 -1850.691406 1945.230469 C -1503.140625 1729.929688 -999.554688 1902.070312 -555.265625 2053.960938 C -186.519531 2180.011719 161.78125 2299.078125 348.328125 2166.601562 C 447.757812 2095.988281 496.742188 1959.570312 498.074219 1749.550781 C 499.628906 1505.039062 561.925781 1336.421875 688.519531 1234.050781 C 932.757812 1036.558594 1368.820312 1127 1790.53125 1214.449219 C 2165.921875 1292.308594 2520.488281 1365.839844 2691.558594 1220.101562 C 2769.851562 1153.398438 2804.539062 1046.160156 2797.628906 892.238281 C 2791.949219 765.828125 2826.410156 665.640625 2902.988281 585.941406 C 3136.601562 342.808594 3721.320312 345.691406 4340.328125 348.75 C 4785.089844 350.941406 5245.039062 353.21875 5596.339844 262.929688 C 5993.011719 160.96875 6190.890625 -48.339844 6201.300781 -376.949219 L 6205.050781 -376.839844 C 6199.519531 -202.121094 6140.199219 -58.679688 6028.75 49.5 C 5928.648438 146.660156 5787.511719 217.660156 5597.269531 266.558594 C 5245.511719 356.980469 4785.328125 354.691406 4340.308594 352.5 C 3722.140625 349.460938 3138.179688 346.570312 2905.691406 588.539062 C 2829.871094 667.460938 2795.738281 766.75 2801.378906 892.070312 C 2808.339844 1047.230469 2773.21875 1155.460938 2693.988281 1222.949219 C 2521.519531 1369.871094 2166.078125 1296.171875 1789.769531 1218.121094 C 1368.910156 1130.851562 933.734375 1040.601562 690.878906 1236.96875 C 565.210938 1338.578125 503.371094 1506.261719 501.824219 1749.570312 C 500.484375 1960.878906 450.984375 2098.300781 350.496094 2169.660156 C 264.507812 2230.730469 142.765625 2244.160156 -32.625 2211.929688 C -188.605469 2183.261719 -367.296875 2122.179688 -556.476562 2057.511719 C -999.984375 1905.878906 -1502.671875 1734.050781 -1848.710938 1948.410156 C -2067.699219 2084.070312 -2201.488281 2355.671875 -2257.71875 2778.699219 "/>
<path fill-rule="nonzero" fill="rgb(68.014526%, 69.670105%, 85.002136%)" fill-opacity="1" d="M -2338.101562 2827.03125 L -2341.808594 2826.46875 C -2309.648438 2612.140625 -2255.601562 2433.167969 -2181.140625 2294.539062 C -2112.628906 2166.988281 -2024.351562 2069.039062 -1918.738281 2003.410156 C -1562.75 1782.210938 -1051.140625 1946.019531 -599.742188 2090.539062 C -225.0625 2210.511719 128.839844 2323.820312 319.457031 2187.578125 C 419.417969 2116.140625 469.984375 1981.769531 474.050781 1776.789062 C 478.769531 1538.859375 542.640625 1373.191406 669.308594 1270.300781 C 918.929688 1067.550781 1363.519531 1151.5 1793.46875 1232.679688 C 2176.03125 1304.921875 2537.359375 1373.148438 2711.789062 1223.628906 C 2789.878906 1156.699219 2825.441406 1051.5 2820.5 902.011719 C 2816.46875 779.988281 2851.261719 682.371094 2926.878906 603.578125 C 3164.171875 356.320312 3761.640625 351.46875 4394.179688 346.339844 C 4845.851562 342.679688 5312.910156 338.890625 5670.859375 245.308594 C 6075.070312 139.648438 6278.78125 -69.191406 6293.648438 -393.121094 L 6297.398438 -392.949219 C 6289.5 -220.71875 6227.378906 -78.609375 6112.78125 29.441406 C 6009.871094 126.46875 5865.628906 198.269531 5671.808594 248.941406 C 5313.410156 342.628906 4846.109375 346.421875 4394.210938 350.089844 C 3762.480469 355.210938 3165.78125 360.050781 2929.578125 606.171875 C 2854.710938 684.199219 2820.25 780.929688 2824.25 901.890625 C 2829.230469 1052.578125 2793.238281 1158.761719 2714.230469 1226.480469 C 2538.421875 1377.160156 2176.230469 1308.769531 1792.769531 1236.371094 C 1363.671875 1155.351562 919.9375 1071.570312 671.675781 1273.210938 C 545.914062 1375.359375 482.496094 1540.109375 477.800781 1776.871094 C 473.710938 1983.109375 422.628906 2118.449219 321.636719 2190.640625 C 233.804688 2253.421875 109.839844 2269.03125 -68.457031 2239.808594 C -227.054688 2213.808594 -408.640625 2155.671875 -600.886719 2094.109375 C -1051.511719 1949.828125 -1562.238281 1786.300781 -1916.761719 2006.601562 C -2138.089844 2144.128906 -2275.910156 2412.5 -2338.101562 2827.03125 "/>
<path fill-rule="nonzero" fill="rgb(53.40271%, 77.328491%, 85.61554%)" fill-opacity="1" d="M -2420.351562 2875.679688 L -2424.050781 2875.058594 C -2388.859375 2665.121094 -2332.238281 2489.179688 -2255.761719 2352.140625 C -2185.320312 2225.929688 -2095.488281 2128.230469 -1988.738281 2061.738281 C -1624.070312 1834.570312 -1104.128906 1990.019531 -645.402344 2127.171875 C -264.566406 2241.039062 95.148438 2348.578125 289.941406 2208.558594 C 390.414062 2136.328125 442.535156 2003.980469 449.285156 1803.941406 C 457.09375 1572.449219 522.488281 1409.691406 649.207031 1306.371094 C 904.34375 1098.359375 1357.730469 1175.75 1796.191406 1250.601562 C 2186.160156 1317.171875 2554.5 1380.039062 2732.378906 1226.761719 C 2810.261719 1159.648438 2846.648438 1056.460938 2843.640625 911.300781 C 2840.96875 782.460938 2883.308594 680.339844 2973.078125 599.128906 C 3053.320312 526.53125 3170.238281 472.21875 3330.511719 433.101562 C 3628.921875 360.25 4027.238281 351.980469 4448.941406 343.230469 C 4907.691406 333.710938 5382.050781 323.859375 5746.789062 226.980469 C 6158.679688 117.570312 6368.308594 -90.859375 6387.648438 -410.21875 L 6391.390625 -409.988281 C 6381.109375 -240.191406 6316.179688 -99.359375 6198.390625 8.589844 C 6092.628906 105.53125 5945.21875 178.148438 5747.75 230.601562 C 5382.570312 327.601562 4907.980469 337.449219 4449.019531 346.980469 C 4027.53125 355.730469 3629.410156 363.988281 3331.398438 436.738281 C 2996.160156 518.578125 2842.359375 669.351562 2847.390625 911.21875 C 2850.429688 1057.570312 2813.609375 1161.71875 2734.828125 1229.601562 C 2555.589844 1384.039062 2186.410156 1321.019531 1795.558594 1254.300781 C 1357.929688 1179.589844 905.394531 1102.339844 651.578125 1309.28125 C 525.746094 1411.871094 460.800781 1573.71875 453.035156 1804.070312 C 446.238281 2005.351562 393.609375 2138.648438 292.128906 2211.601562 C 202.40625 2276.109375 76.160156 2293.929688 -105.164062 2267.710938 C -266.476562 2244.378906 -451.058594 2189.191406 -646.476562 2130.769531 C -1104.441406 1993.839844 -1623.53125 1838.648438 -1986.761719 2064.921875 C -2210.441406 2204.261719 -2352.269531 2469.460938 -2420.351562 2875.679688 "/>
<path fill-rule="nonzero" fill="rgb(29.370117%, 36.531067%, 70.518494%)" fill-opacity="1" d="M -2504.519531 2924.679688 L -2508.199219 2924 C -2470.03125 2718.339844 -2410.871094 2545.371094 -2332.371094 2409.871094 C -2260.019531 2284.988281 -2168.640625 2187.539062 -2060.75 2120.210938 C -1687.128906 1887.039062 -1158.578125 2034.109375 -692.242188 2163.859375 C -305.03125 2271.601562 60.714844 2373.378906 259.789062 2229.53125 C 360.746094 2156.578125 414.382812 2026.230469 423.761719 1831.03125 C 434.585938 1605.789062 501.472656 1445.910156 628.246094 1342.25 C 889.082031 1128.960938 1351.550781 1199.75 1798.789062 1268.199219 C 2196.371094 1329.058594 2571.898438 1386.539062 2753.308594 1229.5 C 2830.949219 1162.289062 2868.128906 1061.109375 2866.980469 920.179688 C 2862.710938 393.691406 3660.230469 367.339844 4504.578125 339.449219 C 4970.578125 324.058594 5452.429688 308.140625 5824.121094 207.898438 C 6243.890625 94.691406 6459.519531 -113.429688 6483.351562 -428.351562 L 6487.101562 -428.070312 C 6474.429688 -260.628906 6406.640625 -121.019531 6285.609375 -13.109375 C 6176.941406 83.769531 6026.308594 157.25 5825.101562 211.519531 C 5452.988281 311.871094 4970.910156 327.800781 4504.710938 343.199219 C 3662.238281 371.03125 2866.488281 397.308594 2870.730469 920.148438 C 2871.878906 1062.25 2834.28125 1164.359375 2755.769531 1232.328125 C 2573.039062 1390.5 2196.679688 1332.898438 1798.21875 1271.910156 C 1351.789062 1203.578125 890.167969 1132.929688 630.617188 1345.148438 C 504.71875 1448.101562 438.277344 1607.089844 427.503906 1831.210938 C 418.070312 2027.621094 363.925781 2158.910156 261.980469 2232.570312 C 170.316406 2298.800781 41.722656 2318.851562 -142.730469 2295.640625 C -306.847656 2274.988281 -494.535156 2222.769531 -693.246094 2167.480469 C -1158.828125 2037.929688 -1686.550781 1891.101562 -2058.761719 2123.390625 C -2284.808594 2264.460938 -2430.621094 2526.570312 -2504.519531 2924.679688 "/>
</svg>
