<?xml version="1.0" encoding="utf-8"?>
<!-- Generator: Adobe Illustrator 27.5.0, SVG Export Plug-In . SVG Version: 6.00 Build 0)  -->
<svg version="1.1" id="Layer_1" xmlns="http://www.w3.org/2000/svg" xmlns:xlink="http://www.w3.org/1999/xlink" x="0px" y="0px"
	 viewBox="0 0 504 288" style="enable-background:new 0 0 504 288;" xml:space="preserve">
<g>
	<g>
		<defs>
			<rect id="SVGID_1_" y="0" width="504" height="288"/>
		</defs>

		<use xlink:href="#SVGID_1_"  style="overflow:visible;fill:url(#SVGID_00000057854465653009120280000014649426093673865395_);"/>
		<clipPath id="SVGID_00000024000674037221198460000018036713037033809852_">
			<use xlink:href="#SVGID_1_"  style="overflow:visible;"/>
		</clipPath>
		<g style="opacity:0.5;clip-path:url(#SVGID_00000024000674037221198460000018036713037033809852_);">
			<g>
				<path style="fill:#FFFFFF;" d="M27.842,252.574c-6.29,0-12.455-0.775-18.483-2.329c-36.479-9.401-55.282-44.62-55.468-44.975
					l0.664-0.348c0.185,0.352,18.843,35.284,54.998,44.598c23.712,6.109,49.586,0.05,76.907-18.01
					c16.436-10.864,31.762-22.049,46.583-32.866c64.564-47.121,115.563-84.34,182.277-39.45c2.753,1.852,5.46,3.679,8.127,5.478
					c76.689,51.74,118.935,80.242,200.325,18.117l0.455,0.596c-81.814,62.451-124.22,33.844-201.199-18.091
					c-2.667-1.799-5.374-3.626-8.126-5.477c-66.281-44.597-117.092-7.514-181.418,39.434c-14.828,10.822-30.161,22.013-46.61,32.886
					C66.297,245.737,46.518,252.574,27.842,252.574z"/>
			</g>
			<g>
				<path style="fill:#E3F2FF;" d="M34.669,248.184c-12.825,0-25.146-3.076-36.903-9.235c-21.873-11.459-35.209-30.33-40.23-37.434
					c-0.855-1.211-1.474-2.086-1.815-2.469l0.559-0.5c0.371,0.415,0.967,1.258,1.87,2.536
					c43.934,62.166,95.176,50.51,130.425,29.786c18.824-11.067,36.539-22.676,53.67-33.902
					c24.049-15.76,46.764-30.645,68.963-41.626c18.496-9.149,34.432-13.792,50.149-14.613c18.039-0.939,35.557,3.313,53.558,13.008
					l0.721,0.387c0.999,0.536,2.009,1.077,3.01,1.657c10.341,5.995,20.031,11.917,29.402,17.644
					c25.973,15.873,48.402,29.58,70.921,36.369c36.611,10.983,70.362,2.167,109.432-28.594l0.465,0.589
					c-28.53,22.463-54.26,33.284-80.331,33.285c-9.823,0.001-19.69-1.535-29.781-4.562c-22.611-6.817-45.08-20.548-71.097-36.447
					c-9.367-5.725-19.054-11.645-29.388-17.635c-0.993-0.576-1.995-1.113-2.987-1.645l-0.722-0.388
					c-33.027-17.787-64.8-17.288-103.02,1.617c-22.158,10.96-44.854,25.834-68.884,41.581c-17.139,11.232-34.861,22.845-53.7,33.921
					C70.06,242.622,51.91,248.184,34.669,248.184z"/>
			</g>
			<g>
				<path style="fill:#C8E5FF;" d="M42.002,243.908c-13.419,0-26.343-3.167-38.695-9.503
					c-21.675-11.119-35.868-29.147-42.688-37.811c-1.315-1.67-2.354-2.99-3.121-3.849l0.559-0.5
					c0.783,0.876,1.828,2.204,3.151,3.885c13.935,17.7,56.342,71.565,129.482,34.096c24.49-12.546,47.558-26.161,69.865-39.326
					c19.132-11.291,37.202-21.956,55.015-31.286c27.878-14.602,61.865-27.085,102.577-8.958c0.396,0.176,0.795,0.35,1.194,0.523
					c0.862,0.374,1.753,0.76,2.625,1.186c15.685,7.659,29.964,15.87,43.773,23.811c20.008,11.505,38.906,22.372,57.549,28.649
					c38.052,12.721,72.925,4.707,109.738-25.219l0.473,0.582c-37.032,30.104-72.128,38.16-110.45,25.348
					c-18.713-6.301-37.643-17.186-57.684-28.71c-13.799-7.935-28.067-16.14-43.729-23.788c-0.857-0.419-1.74-0.801-2.594-1.172
					c-0.402-0.174-0.804-0.349-1.201-0.525c-40.415-17.997-74.202-5.581-101.925,8.937c-17.795,9.321-35.857,19.981-54.981,31.268
					c-22.316,13.171-45.394,26.791-69.904,39.348C74.098,239.568,57.711,243.908,42.002,243.908z"/>
			</g>
			<g>
				<path style="fill:#ACD8FF;" d="M50.093,239.86c-45.601,0-74.601-34.299-87.271-49.284c-1.365-1.614-2.544-3.008-3.547-4.131
					l0.559-0.5c1.011,1.131,2.192,2.529,3.562,4.147c16.182,19.135,59.162,69.965,129.412,39.491
					c40.046-17.372,77.04-37.906,112.816-57.765c4.81-2.669,9.578-5.316,14.308-7.929c29.906-16.523,62.895-29.935,101.445-16.31
					c0.442,0.156,0.889,0.306,1.336,0.456c0.844,0.283,1.716,0.576,2.57,0.917c19.559,7.795,37.184,17.598,54.228,27.079
					c16.632,9.251,32.342,17.989,48.096,23.829c39.883,14.663,74.852,7.721,110.046-21.843l0.482,0.574
					c-23.49,19.732-46.891,29.45-71.698,29.452c-12.602,0.001-25.561-2.505-39.091-7.479c-15.808-5.86-31.542-14.612-48.199-23.877
					c-17.023-9.469-34.627-19.26-54.141-27.038c-0.835-0.333-1.697-0.622-2.531-0.902c-0.451-0.151-0.901-0.302-1.348-0.46
					c-38.269-13.525-71.079-0.179-100.832,16.259c-4.729,2.613-9.498,5.26-14.307,7.929
					c-35.792,19.867-72.803,40.411-112.882,57.797C77.419,237.077,63.081,239.86,50.093,239.86z"/>
			</g>
			<g>
				<path style="fill:#90CBFF;" d="M58.836,236.172c-48.285,0-80.083-35.997-95.306-53.231c-0.878-0.993-1.704-1.929-2.479-2.796
					l0.559-0.5c0.776,0.869,1.604,1.805,2.482,2.8c18.66,21.126,62.368,70.596,130.836,46.498
					c41.65-14.662,85.175-35.11,129.365-60.779c30-17.425,62.455-33.607,100.311-23.661c0.462,0.121,0.929,0.235,1.396,0.348
					c0.852,0.206,1.734,0.42,2.6,0.689c22.46,6.969,42.742,18.09,62.357,28.846c14.125,7.745,27.466,15.06,40.968,20.508
					c41.621,16.656,76.688,10.788,110.354-18.469l0.492,0.566c-18.386,15.977-37.096,24.873-57.2,27.196
					c-16.933,1.958-34.577-0.854-53.927-8.598c-13.544-5.464-26.903-12.79-41.048-20.546c-19.582-10.737-39.83-21.84-62.219-28.788
					c-0.842-0.261-1.712-0.472-2.554-0.676c-0.472-0.115-0.942-0.229-1.41-0.352c-37.578-9.876-69.88,6.237-99.742,23.583
					c-44.231,25.692-87.799,46.161-129.494,60.837C82.174,234.227,70.06,236.172,58.836,236.172z"/>
			</g>
			<g>
				<path style="fill:#75BDFF;" d="M68.527,232.89c-52.951,0-88.927-40.272-105.698-59.045l0.559-0.5
					c19.555,21.887,65.344,73.144,133.664,54.957c47.001-12.511,91.279-31.306,131.605-55.864
					c34.902-21.254,64.37-37.034,99.173-31.008c0.462,0.08,0.926,0.151,1.391,0.223c0.883,0.136,1.796,0.277,2.694,0.477
					c24.72,5.523,47.272,17.87,69.081,29.811c12.131,6.642,23.589,12.915,35.245,17.986c42.691,18.437,78.892,13.5,110.663-15.093
					l0.502,0.558c-19.42,17.477-40.481,26.185-63.64,26.186c-15.018,0.001-30.912-3.659-47.823-10.963
					c-11.689-5.085-23.161-11.366-35.308-18.017c-21.764-11.915-44.267-24.237-68.885-29.737c-0.873-0.195-1.773-0.333-2.645-0.468
					c-0.47-0.072-0.938-0.145-1.404-0.225c-34.551-5.984-63.89,9.739-98.654,30.909c-40.388,24.595-84.732,43.419-131.803,55.948
					C87.185,231.705,77.602,232.89,68.527,232.89z"/>
			</g>
			<g>
				<path style="fill:#59B0FF;" d="M79.274,230.163c-20.697,0-41.09-5.677-60.855-16.97c-23.856-13.63-42.138-32.581-53.813-45.649
					l0.559-0.5c16.068,17.986,64.968,72.722,134.016,60.619c49.283-8.637,94.314-25.779,133.841-50.95
					c1.677-1.068,3.352-2.138,5.023-3.207c30.548-19.53,59.408-37.98,93.011-35.146c0.435,0.037,0.869,0.067,1.305,0.098
					c0.939,0.066,1.91,0.134,2.867,0.266c26.559,3.658,51.16,17.227,74.951,30.349c10.446,5.761,20.314,11.204,30.38,15.891
					c44.268,20.488,80.568,16.654,110.972-11.718l0.512,0.549c-17.773,16.585-37.542,24.856-59.701,24.858
					c-16.058,0.001-33.368-4.341-52.098-13.009c-10.091-4.698-19.969-10.146-30.427-15.914
					c-23.731-13.089-48.271-26.623-74.69-30.262c-0.933-0.128-1.892-0.196-2.818-0.261c-0.439-0.031-0.877-0.061-1.314-0.099
					c-33.351-2.813-62.108,15.57-92.545,35.031c-1.672,1.069-3.347,2.14-5.024,3.208c-39.61,25.224-84.732,42.402-134.114,51.056
					C92.608,229.577,85.924,230.163,79.274,230.163z"/>
			</g>
			<g>
				<path style="fill:#3DA3FF;" d="M91.787,228.148c-22.896,0-45.71-6.37-67.951-18.993c-19.718-11.191-39.048-27.311-57.452-47.911
					l0.559-0.5c41.932,46.934,88.387,69.855,134.37,66.283c50.176-3.896,95.957-19.386,136.073-46.04
					c3.335-2.216,6.657-4.456,9.973-6.69c28.646-19.31,55.704-37.549,86.906-39.004c1.358-0.063,2.757-0.055,4.276,0.026
					c28.117,1.495,54.637,16.324,80.282,30.664c8.559,4.786,17.408,9.734,26.051,14.013c45.786,22.571,82.187,19.844,111.282-8.342
					l0.521,0.539c-29.35,28.432-66.028,31.205-112.136,8.475c-8.66-4.288-17.519-9.241-26.085-14.031
					c-25.571-14.299-52.013-29.085-79.955-30.57c-1.494-0.079-2.868-0.088-4.202-0.026c-30.993,1.445-57.966,19.627-86.522,38.876
					c-3.317,2.236-6.642,4.477-9.979,6.694c-40.224,26.725-86.125,42.256-136.429,46.163
					C98.176,228.024,94.98,228.148,91.787,228.148z"/>
			</g>
			<g>
				<path style="fill:#2296FF;" d="M119.33,227.877c-5.334,0-10.642-0.244-15.926-0.734c-49.74-4.614-97.771-30.255-135.244-72.199
					l0.558-0.5c37.348,41.803,85.204,67.355,134.754,71.952c45.638,4.234,93.449-9.99,138.275-41.133
					c6.692-4.609,13.425-9.601,19.936-14.428c23.953-17.756,48.721-36.117,75.822-38.607c1.426-0.131,2.896-0.266,4.348-0.311
					c29.485-0.911,57.853,15.257,85.275,30.882c7.244,4.128,14.735,8.396,22.061,12.232c47.26,24.689,83.76,23.064,111.592-4.965
					l0.531,0.528c-28.092,28.292-64.88,29.963-112.471,5.102c-7.339-3.843-14.835-8.114-22.085-12.245
					c-27.331-15.573-55.577-31.683-84.881-30.784c-1.429,0.044-2.889,0.178-4.3,0.307c-26.896,2.472-51.577,20.769-75.446,38.463
					c-6.517,4.831-13.255,9.826-19.956,14.442C202.391,213.52,160.241,227.877,119.33,227.877z"/>
			</g>
			<g>
				<path style="fill:#0689FF;" d="M132.461,228.487c-9.182,0-18.407-0.689-27.652-2.077
					c-49.407-7.416-96.045-34.308-134.871-77.766l0.559-0.5c79.166,88.612,187.352,104.86,275.617,41.394
					c8.359-6.011,16.745-12.828,24.855-19.42c22.066-17.938,44.884-36.485,69.765-40.951c32.334-5.803,63.911,12.607,94.449,30.41
					c6.015,3.506,12.233,7.132,18.324,10.489c48.686,26.835,85.289,26.315,111.901-1.588l0.543,0.518
					c-14.837,15.557-33.3,22.715-54.86,21.267c-17.232-1.154-36.186-7.545-57.945-19.539c-6.1-3.362-12.322-6.99-18.341-10.498
					c-30.421-17.735-61.869-36.073-93.938-30.32c-24.691,4.432-47.432,22.918-69.424,40.795
					c-8.118,6.599-16.513,13.423-24.891,19.447C211.343,215.463,172.36,228.487,132.461,228.487z"/>
			</g>
		</g>
		<g style="clip-path:url(#SVGID_00000024000674037221198460000018036713037033809852_);">
			<g>
				<path style="fill:#FFFFFF;" d="M13.596,234.756c-16.985,0-30.736-4.391-41.047-9.568
					c-22.215-11.155-33.339-27.804-33.802-28.508l2.506-1.649c0.109,0.167,11.223,16.762,32.767,27.539
					c28.45,14.231,62.244,11.89,97.727-6.774c16.414-8.634,31.73-17.529,46.542-26.131c64.851-37.662,116.071-67.412,183.309-31.411
					c2.754,1.474,5.463,2.929,8.131,4.361C386.073,203.602,428.13,226.18,509,177.059l1.557,2.564
					c-38.934,23.649-70.782,31.976-103.273,27c-30.674-4.698-60.815-20.879-98.975-41.366c-2.667-1.432-5.375-2.886-8.128-4.359
					c-65.76-35.21-116.345-5.833-180.386,31.36c-14.839,8.618-30.182,17.529-46.652,26.192
					C50.28,230.476,30.362,234.756,13.596,234.756z"/>
			</g>
			<g>
				<path style="fill:#F3FAFF;" d="M16.445,233.406c-39.905,0-65.061-24.207-76.002-37.747c-0.354-0.438-0.589-0.736-0.711-0.862
					l2.027-2.21c0.2,0.179,0.404,0.427,1.017,1.187c15.044,18.618,57.821,58.013,129.951,21.801
					c17.135-8.603,33.177-17.512,48.691-26.129c26.52-14.728,51.569-28.639,76.091-37.479
					c36.947-13.257,68.076-12.363,100.936,2.896c1.841,0.855,3.257,1.537,4.591,2.211c6.113,3.087,12.014,6.113,17.735,9.046
					c30.435,15.605,56.72,29.081,82.319,34.677c34.944,7.627,68.216,0.14,107.885-24.276l1.572,2.555
					c-40.382,24.855-74.333,32.457-110.098,24.652c-25.98-5.679-52.426-19.238-83.048-34.938
					c-5.716-2.931-11.611-5.954-17.719-9.038c-1.304-0.658-2.692-1.327-4.502-2.168c-32.087-14.901-62.512-15.763-98.656-2.794
					c-24.292,8.757-49.238,22.611-75.649,37.279c-15.542,8.631-31.612,17.556-48.803,26.186
					C52.281,229.196,33.079,233.406,16.445,233.406z"/>
			</g>
			<g>
				<path style="fill:#E7F5FF;" d="M19.656,231.734c-29.364,0-55.951-12.598-77.65-37.419c-0.674-0.77-1.255-1.436-1.48-1.636
					l1.996-2.24c0.364,0.325,0.884,0.919,1.743,1.902c33.741,38.596,79.712,46.77,129.448,23.012
					c18.161-8.676,35.207-17.721,51.69-26.468c25.721-13.648,50.016-26.54,73.797-35.396c37.273-13.762,68.311-13.659,100.647,0.333
					c1.557,0.673,3.082,1.339,4.628,2.073c9.053,4.297,17.616,8.52,25.897,12.602c27.393,13.506,51.05,25.17,74.554,30.602
					c35.835,8.261,69.151,1.133,108.026-23.118l1.588,2.545c-39.602,24.706-73.614,31.952-110.289,23.496
					c-23.844-5.51-47.646-17.246-75.205-30.834c-8.272-4.079-16.825-8.296-25.858-12.583c-1.501-0.713-3.001-1.367-4.532-2.03
					c-31.57-13.66-61.922-13.745-98.413-0.273c-23.593,8.786-47.803,21.632-73.434,35.233
					c-16.512,8.762-33.585,17.821-51.804,26.525C55.868,227.202,37.261,231.734,19.656,231.734z"/>
			</g>
			<g>
				<path style="fill:#DBEFFF;" d="M22.739,230.396c-13.061,0-25.638-2.474-37.669-7.428c-22.095-9.097-35.771-23.867-41.611-30.175
					c-0.974-1.051-1.742-1.882-2.172-2.264l1.996-2.24c0.536,0.478,1.309,1.312,2.377,2.466
					c44.653,48.227,94.819,39.874,129.037,24.375c19.622-8.888,38.06-18.233,55.891-27.27c24.494-12.415,47.63-24.141,70.303-32.85
					c25.341-9.62,59.642-18.564,100.358-2.23l0.266,0.106c1.438,0.576,2.923,1.171,4.398,1.827
					c11.617,5.164,22.432,10.325,32.889,15.316c24.846,11.858,46.303,22.099,67.958,27.371c36.706,8.907,70.065,2.135,108.171-21.96
					l1.604,2.535c-38.847,24.565-72.924,31.455-110.482,22.34c-21.959-5.346-43.546-15.649-68.542-27.579
					c-10.44-4.982-21.234-10.135-32.815-15.282c-1.424-0.633-2.884-1.218-4.296-1.784l-0.267-0.107
					c-31.436-12.612-60.796-11.941-98.171,2.248c-22.523,8.651-45.593,20.344-70.017,32.723
					c-17.859,9.052-36.327,18.412-56.009,27.327C57.497,226.215,39.711,230.396,22.739,230.396z"/>
			</g>
			<g>
				<path style="fill:#CEEAFF;" d="M25.944,228.956c-13.324,0-26.174-2.511-38.479-7.536c-22.018-8.993-36.497-23.925-42.679-30.302
					c-1.183-1.22-2.117-2.183-2.738-2.736l1.996-2.24c0.703,0.626,1.671,1.625,2.896,2.888
					c36.813,37.968,80.128,46.675,128.743,25.88c21.55-9.219,41.797-19.042,61.377-28.542
					c22.805-11.064,44.346-21.515,65.523-29.835c27.101-10.647,60.178-19.542,100.064-4.79l0.668,0.247
					c1.318,0.486,2.682,0.988,4.033,1.548c13.863,5.746,26.616,11.672,38.948,17.404c21.741,10.104,42.276,19.646,62.295,24.765
					c37.55,9.562,70.958,3.147,108.314-20.802l1.619,2.525c-37.602,24.106-72.771,30.836-110.675,21.183
					c-20.29-5.187-40.947-14.787-62.817-24.951c-12.305-5.718-25.027-11.631-38.833-17.353c-1.297-0.538-2.632-1.029-3.922-1.505
					l-0.672-0.248c-30.973-11.455-60.259-10.029-97.926,4.769c-21.07,8.277-42.561,18.704-65.312,29.742
					c-19.611,9.515-39.891,19.354-61.507,28.601C59.277,225.19,42.256,228.956,25.944,228.956z"/>
			</g>
			<g>
				<path style="fill:#C2E5FF;" d="M29.184,227.57c-44.653,0-72.336-27.482-83.218-38.285c-1.324-1.314-2.37-2.353-3.156-3.053
					l1.996-2.24c0.846,0.754,1.917,1.817,3.274,3.164c14.053,13.949,56.817,56.396,128.591,27.531
					c24.417-9.819,47.308-20.46,69.446-30.75c20.213-9.395,39.306-18.27,58.159-25.884c27.398-11.063,60.678-20.59,99.771-7.351
					l0.884,0.298c1.26,0.423,2.562,0.861,3.855,1.358c15.838,6.09,30.286,12.664,44.259,19.02
					c19.962,9.082,38.817,17.66,57.381,22.628c37.859,10.091,72.323,3.848,108.458-19.643l1.635,2.516
					c-36.9,23.987-72.128,30.351-110.867,20.026c-18.806-5.033-37.771-13.661-57.85-22.796
					c-13.932-6.338-28.338-12.893-44.093-18.951c-1.232-0.474-2.504-0.901-3.732-1.315l-0.892-0.301
					c-38.163-12.923-70.797-3.566-97.686,7.292c-18.782,7.584-37.841,16.443-58.019,25.823
					c-22.173,10.307-45.101,20.964-69.591,30.813C59.814,224.7,43.611,227.57,29.184,227.57z"/>
			</g>
			<g>
				<path style="fill:#B6E0FF;" d="M32.661,226.182c-14.208,0-27.945-2.708-41.123-8.126c-21.955-9.027-36.669-23.174-44.573-30.774
					c-1.334-1.283-2.486-2.39-3.392-3.197l1.996-2.24c0.948,0.845,2.119,1.971,3.476,3.275
					c15.89,15.278,58.096,55.863,128.616,29.348c28.624-10.763,55.331-22.722,81.159-34.287c16.349-7.32,31.79-14.235,47.148-20.604
					c29.13-12.08,61.344-21.641,99.479-9.911l0.988,0.301c1.237,0.376,2.516,0.765,3.785,1.215
					c17.581,6.237,33.533,13.375,48.96,20.278c18.419,8.242,35.815,16.027,53.078,20.851c38.656,10.754,73.164,4.878,108.604-18.486
					l1.65,2.505c-36.215,23.877-71.502,29.874-111.06,18.871c-17.478-4.885-34.975-12.714-53.498-21.003
					c-15.373-6.879-31.27-13.993-48.737-20.189c-1.204-0.427-2.45-0.806-3.654-1.172l-0.999-0.305
					c-37.225-11.451-68.834-2.051-97.447,9.815c-15.319,6.353-30.742,13.259-47.071,20.57
					c-25.869,11.584-52.619,23.561-81.328,34.356C62.926,223.213,47.536,226.182,32.661,226.182z"/>
			</g>
			<g>
				<path style="fill:#AADAFF;" d="M36.216,224.861c-45.998,0-75.555-27.682-88.475-39.78c-1.302-1.219-2.438-2.283-3.407-3.146
					l1.996-2.24c0.984,0.877,2.139,1.958,3.462,3.197c16.247,15.213,59.404,55.623,128.858,31.355
					c35.063-12.251,67.479-26.399,98.827-40.083c10.425-4.55,20.272-8.848,30.182-13.065c29.524-12.563,61.974-22.767,99.184-12.47
					l1.066,0.292c1.224,0.333,2.488,0.677,3.745,1.086c19.126,6.217,36.431,13.865,53.166,21.261
					c17.063,7.541,33.179,14.663,49.27,19.348c39.43,11.424,73.985,5.918,108.747-17.327l1.668,2.494
					c-35.555,23.776-70.908,29.403-111.251,17.714c-16.285-4.741-32.49-11.903-49.647-19.485
					c-16.666-7.366-33.899-14.982-52.881-21.152c-1.187-0.386-2.416-0.721-3.604-1.044l-1.08-0.296
					c-36.32-10.053-68.186-0.011-97.209,12.339c-9.896,4.211-19.736,8.506-30.155,13.054c-31.4,13.705-63.869,27.877-99.037,40.165
					C63.833,222.602,49.349,224.861,36.216,224.861z"/>
			</g>
			<g>
				<path style="fill:#9ED5FF;" d="M39.848,223.579c-15.56,0-30.651-3.073-45.151-9.218c-22.055-9.346-37.331-23.35-46.458-31.716
					c-1.16-1.063-2.207-2.023-3.144-2.857l1.996-2.24c0.945,0.842,2.003,1.812,3.174,2.886
					c18.185,16.668,60.762,55.704,129.377,33.593c45.531-14.672,86.916-32.731,126.938-50.195l2.771-1.209
					c34.622-15.105,64.689-23.442,98.888-15.028l1.113,0.27c1.22,0.293,2.48,0.597,3.734,0.968
					c20.503,6.059,39.039,14.179,56.965,22.03c15.859,6.947,30.84,13.509,45.87,18.058c40.191,12.105,74.794,6.966,108.892-16.169
					l1.684,2.483c-34.905,23.683-70.317,28.943-111.442,16.558c-15.203-4.601-30.263-11.198-46.206-18.182
					c-17.841-7.814-36.289-15.895-56.611-21.901c-1.181-0.349-2.404-0.643-3.587-0.928l-1.128-0.273
					c-33.381-8.212-62.908,0.003-96.972,14.865l-2.771,1.209c-40.089,17.494-81.544,35.583-127.218,50.301
					C66.705,221.347,53.105,223.579,39.848,223.579z"/>
			</g>
			<g>
				<path style="fill:#92D0FF;" d="M43.56,222.38c-48.111,0-79.893-28.682-95.181-42.474c-0.899-0.811-1.74-1.57-2.523-2.268
					l1.996-2.24c0.787,0.702,1.633,1.465,2.537,2.28c18.623,16.804,62.237,56.157,130.246,36.128
					c50.172-14.775,96.047-34.301,130.407-49.663c29.655-13.256,61.695-25.533,98.592-17.584l1.138,0.241
					c1.224,0.257,2.488,0.523,3.747,0.857c21.738,5.784,41.41,14.351,60.434,22.636c14.779,6.436,28.738,12.515,42.8,16.93
					c40.933,12.791,75.582,8.021,109.037-15.011l1.701,2.471c-34.276,23.597-69.748,28.492-111.635,15.403
					c-14.216-4.463-28.247-10.574-43.102-17.043c-18.921-8.24-38.487-16.761-60.007-22.487c-1.182-0.315-2.406-0.572-3.592-0.82
					l-1.152-0.244c-36.019-7.759-67.535,4.337-96.736,17.391c-34.446,15.399-80.441,34.976-130.784,49.801
					C67.886,220.688,55.238,222.38,43.56,222.38z"/>
			</g>
			<g>
				<path style="fill:#86CBFF;" d="M47.72,221.169c-49.972,0-83.644-30.085-99.656-44.39l-1.445-1.289l1.996-2.24l1.447,1.292
					c19.113,17.075,63.875,57.063,131.569,39.044c42.449-11.296,85.334-26.97,131.105-47.92
					c31.425-14.383,62.588-26.745,98.293-20.141l1.136,0.206c1.236,0.222,2.514,0.451,3.786,0.752
					c22.852,5.41,43.58,14.409,63.627,23.111c13.8,5.991,26.835,11.649,40.007,15.932c41.665,13.484,76.356,9.082,109.181-13.852
					l1.719,2.459c-33.198,23.196-69.774,27.856-111.825,14.247c-13.31-4.328-26.408-10.014-40.275-16.034
					c-19.927-8.65-40.531-17.595-63.124-22.944c-1.191-0.282-2.428-0.503-3.624-0.718l-1.151-0.209
					c-34.843-6.445-65.529,5.744-96.5,19.919c-45.927,21.021-88.968,36.752-131.582,48.092
					C70.092,219.762,58.521,221.169,47.72,221.169z"/>
			</g>
			<g>
				<path style="fill:#79C5FF;" d="M51.724,220.07c-18.648,0-36.854-4.044-54.408-12.113
					c-22.875-10.513-39.814-25.601-49.937-34.616l1.996-2.24c21.256,18.933,65.482,58.327,133.253,42.267
					c44.604-10.572,88.947-26.109,131.8-46.179c34.425-16.123,63.497-28.029,97.996-22.696l1.125,0.17
					c1.25,0.187,2.543,0.38,3.831,0.648c23.863,4.952,45.588,14.373,66.597,23.485c12.903,5.597,25.091,10.883,37.438,15.033
					c41.799,13.99,77.561,9.838,109.326-12.693l1.736,2.447c-32.603,23.124-69.245,27.406-112.017,13.09
					c-12.469-4.192-24.714-9.503-37.678-15.125c-20.869-9.052-42.45-18.412-66.012-23.3c-1.205-0.251-2.456-0.438-3.666-0.618
					l-1.14-0.172c-33.655-5.206-62.309,6.544-96.266,22.448c-43.037,20.157-87.576,35.762-132.38,46.381
					C72.677,218.81,62.131,220.07,51.724,220.07z"/>
			</g>
			<g>
				<path style="fill:#6DC0FF;" d="M56.031,219.031c-19.266,0-38.146-4.186-56.402-12.53c-21.438-9.798-38.057-23.347-51.487-35.309
					l1.996-2.24c19.586,17.444,65.458,58.293,133.489,44.198c46.438-9.622,91.016-24.574,132.495-44.439
					c30.48-14.598,61.998-29.695,97.696-25.249l1.063,0.129c1.282,0.153,2.608,0.313,3.929,0.548
					c24.787,4.42,47.455,14.263,69.378,23.781c12.074,5.243,23.48,10.195,35.058,14.213c42.493,14.686,78.303,10.913,109.472-11.535
					l1.754,2.434c-32.019,23.06-68.724,26.963-112.208,11.936c-11.687-4.056-23.142-9.03-35.271-14.296
					c-21.764-9.45-44.269-19.221-68.709-23.58c-1.236-0.22-2.519-0.374-3.759-0.522l-1.078-0.131
					c-34.817-4.329-65.939,10.566-96.03,24.978c-41.697,19.97-86.506,34.999-133.181,44.67
					C74.764,218.051,65.352,219.031,56.031,219.031z"/>
			</g>
			<g>
				<path style="fill:#61BBFF;" d="M60.246,218.107c-49.814,0-86.758-27.166-111.343-49.063l1.996-2.24
					c28.052,24.986,72.441,56.951,133.729,46.129c47.694-8.421,92.505-22.787,133.187-42.699l3.124-1.531
					c30.936-15.166,60.17-29.49,94.273-26.27l0.988,0.09c1.318,0.12,2.682,0.243,4.041,0.446
					c25.635,3.827,49.208,14.09,72.004,24.016c11.302,4.921,21.976,9.569,32.83,13.452c43.175,15.387,79.031,11.994,109.618-10.376
					l1.771,2.422c-31.45,22.999-68.215,26.526-112.398,10.779c-10.95-3.918-21.67-8.585-33.019-13.527
					c-22.618-9.848-46.006-20.031-71.25-23.799c-1.273-0.19-2.593-0.31-3.868-0.425l-0.999-0.092
					c-33.272-3.143-62.126,11.003-92.671,25.977l-3.127,1.532c-40.934,20.036-86.013,34.489-133.983,42.958
					C76.518,217.411,68.217,218.107,60.246,218.107z"/>
			</g>
			<g>
				<path style="fill:#55B6FF;" d="M65.019,217.225c-39.545,0-77.471-16.588-115.354-50.33l1.996-2.24
					c43.849,39.054,87.669,54.774,133.97,48.062c48.551-7.04,93.594-20.821,133.877-40.961c2.242-1.121,4.479-2.248,6.712-3.372
					c29.692-14.956,57.735-29.08,90.387-26.98l0.878,0.055c1.366,0.085,2.778,0.172,4.185,0.341
					c26.419,3.178,50.861,13.866,74.499,24.202c10.575,4.624,20.565,8.992,30.736,12.739c43.845,16.095,79.749,13.08,109.764-9.216
					l1.789,2.408c-30.889,22.946-67.718,26.095-112.588,9.624c-10.257-3.778-20.753-8.368-30.903-12.806
					c-23.439-10.249-47.675-20.847-73.654-23.972c-1.321-0.159-2.69-0.243-4.014-0.325l-0.886-0.055
					c-31.82-2.054-59.525,11.897-88.844,26.665c-2.236,1.126-4.475,2.254-6.72,3.376c-40.57,20.283-85.92,34.16-134.789,41.246
					C78.992,216.711,71.979,217.225,65.019,217.225z"/>
			</g>
			<g>
				<path style="fill:#49B0FF;" d="M70.396,216.417c-41.136,0-81.415-17.331-119.97-51.67l1.996-2.24
					c43.053,38.346,88.206,55.17,134.213,49.996c49.119-5.523,94.394-18.719,134.565-39.223c3.349-1.709,6.685-3.441,10.014-5.17
					c27.284-14.165,55.514-28.814,86.784-27.731l0.704,0.023c1.435,0.047,2.918,0.096,4.396,0.231
					c27.148,2.48,52.434,13.599,76.887,24.352c9.453,4.156,19.228,8.454,28.748,12.061c44.507,16.807,80.46,14.171,109.911-8.058
					l1.807,2.395c-30.339,22.899-67.229,25.669-112.779,8.469c-9.596-3.635-19.406-7.949-28.894-12.121
					c-24.233-10.656-49.291-21.674-75.953-24.11c-1.391-0.127-2.83-0.175-4.222-0.22l-0.709-0.024
					c-30.499-1.054-57.117,12.765-85.298,27.396c-3.336,1.732-6.678,3.467-10.033,5.179
					c-40.494,20.668-86.114,33.969-135.593,39.532C81.434,216.106,75.905,216.417,70.396,216.417z"/>
			</g>
			<g>
				<path style="fill:#3DABFF;" d="M75.586,215.765c-42.955,0-84.742-17.846-124.397-53.167l1.996-2.24
					c42.793,38.115,88.035,55.589,134.458,51.931c49.465-3.896,94.971-16.509,135.252-37.487c3.682-1.917,7.348-3.864,11.006-5.805
					c26.89-14.274,54.694-29.034,85.456-29.644c1.679-0.035,3.425,0.004,5.172,0.113c27.831,1.741,53.939,13.298,79.186,24.474
					c8.825,3.907,17.951,7.947,26.85,11.409c45.161,17.525,81.159,15.268,110.057-6.898l1.826,2.381
					c-29.799,22.856-66.752,25.249-112.97,7.314c-8.963-3.488-18.121-7.542-26.977-11.462
					c-25.006-11.069-50.863-22.516-78.159-24.223c-1.664-0.104-3.325-0.14-4.925-0.108c-30.046,0.596-56.307,14.536-84.109,29.294
					c-3.665,1.946-7.337,3.895-11.027,5.817c-40.64,21.166-86.532,33.889-136.4,37.816
					C83.772,215.603,79.672,215.765,75.586,215.765z"/>
			</g>
			<g>
				<path style="fill:#31A6FF;" d="M81.73,215.229c-56.206,0-101.364-29.47-129.78-54.78l1.996-2.24
					c29.179,25.99,76.247,56.434,134.706,53.868c49.633-2.177,95.369-14.206,135.937-35.753c5.299-2.814,10.65-5.788,15.826-8.664
					c25.316-14.067,51.494-28.613,80.372-29.333c1.706-0.042,3.442-0.086,5.17-0.027c28.474,0.962,55.383,12.966,81.406,24.575
					c8.225,3.669,16.73,7.463,25.03,10.777c45.798,18.247,81.845,16.37,110.202-5.738l1.844,2.366
					c-16.074,12.532-34.491,18.79-55.588,18.791c-17.317,0.001-36.439-4.213-57.57-12.632c-8.355-3.336-16.889-7.143-25.141-10.824
					c-25.76-11.492-52.397-23.374-80.285-24.316c-1.639-0.055-3.331-0.013-4.967,0.027c-28.167,0.702-52.867,14.426-79.017,28.956
					c-5.188,2.883-10.553,5.864-15.876,8.692c-40.965,21.758-87.13,33.904-137.213,36.1C86.417,215.178,84.06,215.229,81.73,215.229
					z"/>
			</g>
			<g>
				<path style="fill:#24A1FF;" d="M100.303,215.128c-3.584,0-7.151-0.088-10.702-0.264c-50.109-2.483-98.724-22.571-136.889-56.564
					l1.996-2.24c37.655,33.539,85.613,53.358,135.041,55.808c44.35,2.2,91.545-9.567,136.53-34.02
					c6.271-3.382,12.59-7.02,18.7-10.537c24.336-14.01,49.502-28.497,77.2-30.007l0.497-0.027c1.543-0.085,3.138-0.174,4.731-0.141
					c29.323,0.599,57.254,13.03,84.265,25.052c7.407,3.297,15.066,6.706,22.549,9.768c46.432,18.974,82.528,17.475,110.35-4.579
					l1.863,2.35c-28.745,22.787-65.821,24.425-113.349,5.005c-7.525-3.08-15.206-6.499-22.633-9.804
					c-26.739-11.901-54.388-24.206-83.105-24.793c-1.479-0.03-2.95,0.051-4.505,0.137l-0.5,0.028
					c-26.984,1.471-51.835,15.776-75.867,29.611c-6.128,3.528-12.464,7.175-18.768,10.575
					C185.839,203.245,142.024,215.128,100.303,215.128z"/>
			</g>
			<g>
				<path style="fill:#189BFF;" d="M99.286,214.789c-2.895,0-5.792-0.044-8.698-0.131c-47.681-1.443-96.375-22.22-137.114-58.505
					l1.996-2.24c40.213,35.817,88.231,56.325,135.208,57.747c48.956,1.486,96.438-9.684,137.297-32.288
					c7.02-3.862,14.085-8.089,20.919-12.176c23.558-14.091,47.918-28.663,74.681-30.911c1.431-0.121,3.318-0.264,5.24-0.309
					c29.639-0.699,58.131,12.232,85.664,24.739c7.085,3.218,14.411,6.546,21.571,9.547c47.058,19.704,83.201,18.586,110.496-3.418
					l1.883,2.336c-28.232,22.759-65.373,24.017-113.538,3.85c-7.201-3.019-14.548-6.356-21.652-9.583
					c-27.224-12.366-55.332-25.159-84.353-24.472c-1.841,0.043-3.671,0.183-5.059,0.3c-26.07,2.191-50.128,16.581-73.393,30.497
					c-6.857,4.101-13.946,8.342-21.009,12.228C190.523,203.518,145.698,214.789,99.286,214.789z"/>
			</g>
			<g>
				<path style="fill:#0C96FF;" d="M109.504,215.075c-5.986,0-11.993-0.209-18.019-0.629c-48.549-3.387-97.292-24.852-137.25-60.442
					l1.996-2.24c39.464,35.151,87.572,56.349,135.463,59.69c48.704,3.396,96.413-7.17,137.976-30.56
					c7.704-4.324,15.454-9.144,22.948-13.804c22.835-14.202,46.448-28.887,72.35-31.826c1.928-0.219,3.652-0.366,5.275-0.451
					c30.195-1.57,59.448,11.837,87.718,24.81c6.54,3.002,13.303,6.105,19.917,8.942c47.672,20.438,83.865,19.701,110.643-2.258
					l1.902,2.32c-27.726,22.736-64.927,23.617-113.728,2.695c-6.648-2.852-13.429-5.963-19.986-8.972
					c-27.939-12.821-56.833-26.084-86.31-24.541c-1.56,0.081-3.227,0.224-5.093,0.435c-25.229,2.863-48.551,17.367-71.104,31.393
					c-7.522,4.678-15.301,9.516-23.063,13.872C194.21,204.291,152.484,215.075,109.504,215.075z"/>
			</g>
			<g>
				<path style="fill:#0091FF;" d="M118.239,215.67c-9.224,0-18.488-0.551-27.774-1.66c-49.626-5.928-96.47-27.421-135.468-62.155
					l1.996-2.24c78.813,70.198,186.511,83.073,274.372,32.801c8.333-4.768,16.706-10.185,24.804-15.422
					c22.164-14.337,45.083-29.163,70.195-32.75c32.645-4.66,64.359,10.056,95.037,24.288c6.01,2.788,12.223,5.67,18.304,8.337
					c48.282,21.176,84.523,20.817,110.79-1.098l1.922,2.304c-15.055,12.561-33.757,18.339-55.604,17.177
					c-17.359-0.925-36.434-6.04-58.313-15.636c-6.109-2.679-12.338-5.569-18.361-8.363c-30.282-14.048-61.604-28.576-93.351-24.039
					c-24.46,3.494-47.098,18.138-68.99,32.299c-8.131,5.26-16.538,10.698-24.942,15.507
					C197.484,205.258,158.32,215.67,118.239,215.67z"/>
			</g>
		</g>

			<path style="opacity:0.2;clip-path:url(#SVGID_00000024000674037221198460000018036713037033809852_);fill:url(#SVGID_00000123410201034178957100000001461109859008079510_);" d="
			M117.18,186.241c47.528-8.598,91.556-30.284,137.654-44.701c46.098-14.417,97.909-21.091,141.444-0.173
			c16.41,7.885,30.804,19.311,45.84,29.577c15.036,10.266,31.305,19.614,49.288,22.452c17.984,2.838,38.084-1.956,49.686-15.987
			c0.218,12.379,0.435,24.757,0.653,37.136c-25.633,9.37-55.021,7.946-79.627-3.859c-35.68-17.118-60.025-54.011-97.55-66.579
			c-26.116-8.746-55.179-4.169-80.569,6.504c-25.39,10.672-47.89,27.039-70.536,42.713c-27.669,19.149-56.338,37.671-88.326,48.11
			c-31.988,10.44-68.034,12.12-98.567-2.022c-16.086-7.451-61.736-42.774-44.404-64.27c9.787-12.139,23.304-3.677,34.012,1.297
			c14.622,6.792,30.529,10.595,46.53,12.206C80.842,190.47,99.259,189.483,117.18,186.241z"/>
		<g style="clip-path:url(#SVGID_00000024000674037221198460000018036713037033809852_);">
			<path d="M54.444,215.205c-30.757,0-58.053-8.705-77.942-25.397l0.642-0.766c27.62,23.179,69.703,30.814,115.464,20.946
				c28.474-6.14,55.793-17.839,82.213-29.153c10.418-4.462,21.191-9.075,31.891-13.286c30.305-11.927,75.629-26.705,119.251-17.386
				c16.395,3.503,32.106,10.276,47.302,16.827c16.681,7.191,33.929,14.626,52.034,17.689c38.533,6.521,80.012-8.317,105.671-37.796
				l0.754,0.656c-25.883,29.736-67.726,44.7-106.591,38.126c-18.225-3.083-35.529-10.542-52.264-17.757
				c-15.15-6.532-30.817-13.286-47.115-16.768c-43.351-9.261-88.49,5.459-118.676,17.339c-10.686,4.206-21.452,8.816-31.863,13.275
				c-26.464,11.333-53.828,23.051-82.396,29.211C79.644,213.807,66.765,215.205,54.444,215.205z"/>
		</g>
		<g style="clip-path:url(#SVGID_00000024000674037221198460000018036713037033809852_);">
			<path style="fill:#B5B5B5;" d="M164.223,204.286c-21.874,0-42.197-3.753-58.478-8.139
				C65.43,185.288,28.044,165.439-8.111,146.244l0.469-0.883c36.106,19.169,73.441,38.991,113.647,49.82
				c31.476,8.478,78.137,14.588,121.702-4.438c10.816-4.724,21.194-10.934,31.231-16.938c14.604-8.738,29.707-17.774,46.366-22.336
				c26.258-7.191,54.504-2.792,81.115,3.034c3.546,0.776,7.095,1.577,10.648,2.379c22.795,5.147,46.373,10.473,69.875,9.047
				c23.959-1.449,54.311-12.218,67.647-38.097l0.889,0.458c-13.526,26.253-44.241,37.172-68.475,38.637
				c-23.653,1.428-47.293-3.908-70.156-9.07c-3.551-0.802-7.098-1.603-10.641-2.378c-26.488-5.798-54.587-10.181-80.639-3.046
				c-16.527,4.526-31.569,13.526-46.116,22.229c-10.064,6.021-20.469,12.247-31.344,16.996
				C206.839,200.948,184.843,204.286,164.223,204.286z"/>
		</g>

			<path style="opacity:0.2;clip-path:url(#SVGID_00000024000674037221198460000018036713037033809852_);fill:url(#SVGID_00000057855706398784930830000004654803730628542617_);" d="
			M188.444,140.5c-26.864,10.96-48.682,30.884-76.657,39.352C69.12,192.768,16.951,172.935-3.52,136.018
			c-9.435,26.449-14.412,54.266-14.707,82.202c-0.106,10.034,0.778,21.005,8.22,28.544c18.339,18.579,89.118,29.487,162.103-28.753
			c26.472-21.124,58.995-53.537,92.165-64.63c28.861-9.652,62.124-2.113,88.913,12.349c49.714,26.837,82.953,75.628,142.362,101.064
			c70.684,30.264,133.056,1.943,142.618-43.327c4.335-20.521-8.644-58.576-36.75-60.327c-12.296-0.766-24.604,7.426-35.465,11.387
			C427.06,217.879,303.818,93.43,188.444,140.5z"/>
		<g style="clip-path:url(#SVGID_00000024000674037221198460000018036713037033809852_);">
			<path style="fill:#ADADAD;" d="M522.152,262.875c-15.558,0-31.003-3.62-44.159-10.431
				c-30.023-15.541-52.677-33.753-72.662-49.821c-30.661-24.649-57.14-45.938-98.997-49.537
				c-35.213-3.029-68.349,12.639-100.39,27.789c-14.871,7.032-30.249,14.304-45.73,19.683
				c-59.687,20.741-127.859,14.033-182.358-17.949l0.506-0.862c54.25,31.835,122.109,38.514,181.524,17.867
				c15.431-5.362,30.783-12.622,45.631-19.643c32.162-15.207,65.424-30.934,100.903-27.881c42.16,3.625,68.75,25.002,99.537,49.754
				c19.95,16.039,42.562,34.217,72.495,49.712c28.109,14.55,72.279,15.143,97.544-9.049l0.691,0.723
				c-11.605,11.113-28.389,17.995-47.256,19.379C527.009,262.787,524.578,262.875,522.152,262.875z"/>
		</g>
	</g>
</g>
</svg>
